<svg width="16" height="16" viewBox="0 0 16 16" fill="none" xmlns="http://www.w3.org/2000/svg">
<path d="M0 0H16V16H0V0Z" fill="#F3DC1E"/>
<path d="M5.89891 7.26975C5.8733 7.22594 5.88805 7.16967 5.93186 7.14406L8.17715 5.83148C8.22096 5.80587 8.27723 5.82062 8.30284 5.86443C8.32845 5.90824 8.3137 5.96451 8.26989 5.99012L6.0246 7.3027C5.98079 7.32831 5.92452 7.31356 5.89891 7.26975Z" fill="black"/>
<path fill-rule="evenodd" clip-rule="evenodd" d="M5.86281 7.29107C5.82559 7.2274 5.84703 7.14561 5.9107 7.10838L8.15599 5.7958C8.21967 5.75858 8.30146 5.78002 8.33868 5.8437C8.3759 5.90737 8.35446 5.98916 8.29079 6.02638L6.0455 7.33896C5.98182 7.37619 5.90003 7.35474 5.86281 7.29107ZM5.95276 7.18033C5.92882 7.19432 5.92075 7.22507 5.93475 7.24901C5.94875 7.27296 5.9795 7.28102 6.00344 7.26702L8.24873 5.95444C8.27267 5.94045 8.28073 5.90969 8.26674 5.88575C8.25274 5.86181 8.22199 5.85375 8.19805 5.86775L5.95276 7.18033Z" fill="black"/>
<path d="M8.15241 5.86743C8.17799 5.82361 8.23425 5.80883 8.27808 5.83441L10.4103 7.07925C10.4542 7.10484 10.469 7.1611 10.4434 7.20492C10.4178 7.24875 10.3615 7.26353 10.3177 7.23795L8.18543 5.9931C8.14161 5.96752 8.12682 5.91125 8.15241 5.86743Z" fill="black"/>
<path fill-rule="evenodd" clip-rule="evenodd" d="M8.11626 5.84677C8.15345 5.78308 8.23523 5.76159 8.29892 5.79878L10.4312 7.04362C10.4949 7.08081 10.5164 7.16259 10.4792 7.22628C10.442 7.28998 10.3602 7.31147 10.2965 7.27428L8.16426 6.02944C8.10057 5.99225 8.07908 5.91047 8.11626 5.84677ZM8.25691 5.87074C8.23296 5.85676 8.20221 5.86484 8.18823 5.88879C8.17425 5.91274 8.18233 5.94349 8.20628 5.95747L10.3385 7.20231C10.3625 7.21629 10.3932 7.20821 10.4072 7.18427C10.4212 7.16032 10.4131 7.12957 10.3892 7.11559L8.25691 5.87074Z" fill="black"/>
<path d="M10.2993 7.17463C10.2742 7.1305 10.2897 7.07442 10.3338 7.04937L11.7122 6.26699C11.7563 6.24194 11.8124 6.25741 11.8375 6.30154C11.8625 6.34567 11.847 6.40175 11.8029 6.4268L10.4245 7.20918C10.3804 7.23423 10.3243 7.21876 10.2993 7.17463Z" fill="black"/>
<path fill-rule="evenodd" clip-rule="evenodd" d="M10.2632 7.19524C10.2268 7.1311 10.2493 7.04959 10.3134 7.01318L11.6918 6.2308C11.7559 6.19439 11.8375 6.21687 11.8739 6.28101C11.9103 6.34516 11.8878 6.42667 11.8236 6.46308L10.4453 7.24546C10.3811 7.28187 10.2996 7.25938 10.2632 7.19524ZM10.3545 7.08565C10.3304 7.09934 10.322 7.12999 10.3357 7.15411C10.3493 7.17822 10.38 7.18668 10.4041 7.17299L11.7825 6.3906C11.8066 6.37692 11.8151 6.34627 11.8014 6.32215C11.7877 6.29803 11.7571 6.28958 11.7329 6.30327L10.3545 7.08565Z" fill="black"/>
<path d="M10.3559 7.06055C10.4066 7.06055 10.4478 7.10168 10.4478 7.15243V8.74061C10.4478 8.79136 10.4066 8.83249 10.3559 8.83249C10.3051 8.83249 10.264 8.79136 10.264 8.74061V7.15243C10.264 7.10168 10.3051 7.06055 10.3559 7.06055Z" fill="black"/>
<path fill-rule="evenodd" clip-rule="evenodd" d="M10.3562 7.01953C10.43 7.01953 10.4897 7.07932 10.4897 7.15308V8.74126C10.4897 8.81502 10.43 8.87481 10.3562 8.87481C10.2824 8.87481 10.2227 8.81502 10.2227 8.74126V7.15308C10.2227 7.07932 10.2824 7.01953 10.3562 7.01953ZM10.4064 7.15308C10.4064 7.12535 10.3839 7.10286 10.3562 7.10286C10.3285 7.10286 10.306 7.12535 10.306 7.15308V8.74126C10.306 8.76899 10.3285 8.79148 10.3562 8.79148C10.3839 8.79148 10.4064 8.76899 10.4064 8.74126V7.15308Z" fill="black"/>
<path d="M3.68529 5.96975C3.86578 5.86555 4.08814 5.86555 4.26863 5.96975L5.91323 6.91927C6.09372 7.02347 6.2049 7.21604 6.2049 7.42445V9.32347C6.2049 9.53188 6.09372 9.72445 5.91323 9.82865L4.26863 10.7782C4.08814 10.8824 3.86578 10.8824 3.68529 10.7782L2.04069 9.82865C1.86021 9.72445 1.74902 9.53188 1.74902 9.32347V7.42445C1.74902 7.21604 1.86021 7.02347 2.04069 6.91927L3.68529 5.96975Z" fill="black"/>
<path fill-rule="evenodd" clip-rule="evenodd" d="M3.66462 5.93334C3.858 5.8217 4.09625 5.8217 4.28962 5.93334L5.93423 6.88286C6.1276 6.9945 6.24673 7.20083 6.24673 7.42412V9.32315C6.24673 9.54644 6.1276 9.75277 5.93423 9.86441L4.28962 10.8139C4.09625 10.9256 3.858 10.9256 3.66462 10.8139L2.02002 9.86441C1.82664 9.75277 1.70752 9.54644 1.70752 9.32315V7.42412C1.70752 7.20083 1.82664 6.9945 2.02002 6.88286L3.66462 5.93334ZM4.24796 6.00551C4.08036 5.90875 3.87388 5.90875 3.70629 6.00551L2.06169 6.95502C1.89409 7.05178 1.79085 7.2306 1.79085 7.42412V9.32315C1.79085 9.51667 1.89409 9.69549 2.06169 9.79224L3.70629 10.7418C3.87388 10.8385 4.08037 10.8385 4.24796 10.7418L5.89256 9.79224C6.06015 9.69549 6.1634 9.51667 6.1634 9.32315V7.42412C6.1634 7.2306 6.06015 7.05178 5.89256 6.95502L4.24796 6.00551Z" fill="black"/>
<path d="M3.6918 6.2051C3.87228 6.1009 4.09465 6.1009 4.27513 6.2051L5.70945 7.03321C5.88993 7.13741 6.00111 7.32998 6.00111 7.53839V9.19459C6.00111 9.403 5.88993 9.59557 5.70945 9.69977L4.27513 10.5279C4.09465 10.6321 3.87229 10.6321 3.6918 10.5279L2.25749 9.69977C2.077 9.59557 1.96582 9.403 1.96582 9.19459V7.53839C1.96582 7.32998 2.077 7.13741 2.25749 7.03321L3.6918 6.2051Z" fill="#F3DC1E"/>
<path fill-rule="evenodd" clip-rule="evenodd" d="M3.67113 6.16967C3.86451 6.05803 4.10275 6.05803 4.29613 6.16967L5.73044 6.99777C5.92382 7.10942 6.04294 7.31575 6.04294 7.53904V9.19524C6.04294 9.41853 5.92382 9.62486 5.73044 9.73651L4.29613 10.5646C4.10275 10.6763 3.86451 10.6763 3.67113 10.5646L2.23682 9.73651C2.04344 9.62486 1.92432 9.41853 1.92432 9.19524V7.53904C1.92432 7.31575 2.04344 7.10942 2.23682 6.99777L3.67113 6.16967ZM4.25446 6.24184C4.08687 6.14508 3.88039 6.14508 3.7128 6.24184L2.27848 7.06994C2.11089 7.1667 2.00765 7.34552 2.00765 7.53904V9.19524C2.00765 9.38876 2.11089 9.56758 2.27848 9.66434L3.7128 10.4924C3.88039 10.5892 4.08687 10.5892 4.25446 10.4924L5.68878 9.66434C5.85637 9.56758 5.95961 9.38876 5.95961 9.19524V7.53904C5.95961 7.34552 5.85637 7.1667 5.68878 7.06994L4.25446 6.24184Z" fill="black"/>
<path d="M3.97028 6.44486C3.99559 6.40089 4.05176 6.38575 4.09574 6.41107L5.60302 7.27864C5.647 7.30395 5.66213 7.36012 5.63682 7.4041C5.61151 7.44808 5.55534 7.46321 5.51136 7.4379L4.00408 6.57033C3.9601 6.54501 3.94497 6.48884 3.97028 6.44486Z" fill="black"/>
<path fill-rule="evenodd" clip-rule="evenodd" d="M3.93436 6.42434C3.97115 6.36041 4.0528 6.33842 4.11672 6.37521L5.624 7.24278C5.68792 7.27957 5.70992 7.36122 5.67312 7.42514C5.63633 7.48906 5.55468 7.51106 5.49076 7.47426L3.98348 6.6067C3.91956 6.5699 3.89756 6.48826 3.93436 6.42434ZM4.07515 6.44744C4.05111 6.4336 4.02042 6.44187 4.00658 6.46591C3.99275 6.48994 4.00102 6.52064 4.02505 6.53447L5.53233 7.40204C5.55637 7.41587 5.58706 7.40761 5.6009 7.38357C5.61473 7.35954 5.60646 7.32884 5.58243 7.315L4.07515 6.44744Z" fill="black"/>
<path d="M3.9852 10.3073C3.95913 10.2638 3.97328 10.2074 4.01681 10.1813L5.50878 9.28767C5.55232 9.2616 5.60874 9.27575 5.63482 9.31928C5.66089 9.36281 5.64674 9.41924 5.60321 9.44531L4.11123 10.3389C4.0677 10.365 4.01127 10.3509 3.9852 10.3073Z" fill="black"/>
<path fill-rule="evenodd" clip-rule="evenodd" d="M3.94899 10.3284C3.91109 10.2652 3.93166 10.1831 3.99494 10.1452L5.48691 9.25161C5.55019 9.21371 5.6322 9.23429 5.6701 9.29756C5.708 9.36083 5.68743 9.44285 5.62415 9.48075L4.13218 10.3744C4.06891 10.4123 3.98689 10.3917 3.94899 10.3284ZM4.03776 10.2167C4.01397 10.231 4.00623 10.2618 4.02048 10.2856C4.03473 10.3094 4.06557 10.3171 4.08936 10.3029L5.58133 9.40926C5.60512 9.39501 5.61286 9.36417 5.59861 9.34038C5.58436 9.31659 5.55352 9.30885 5.52973 9.3231L4.03776 10.2167Z" fill="black"/>
<path d="M2.29728 7.41602C2.34802 7.41602 2.38916 7.45715 2.38916 7.50789L2.38916 9.24702C2.38916 9.29777 2.34802 9.3389 2.29728 9.3389C2.24654 9.3389 2.2054 9.29777 2.2054 9.24702L2.2054 7.50789C2.2054 7.45715 2.24654 7.41602 2.29728 7.41602Z" fill="black"/>
<path fill-rule="evenodd" clip-rule="evenodd" d="M2.29712 7.37402C2.37087 7.37402 2.43066 7.43381 2.43066 7.50757L2.43066 9.2467C2.43066 9.32045 2.37087 9.38024 2.29712 9.38024C2.22336 9.38024 2.16357 9.32045 2.16357 9.2467L2.16357 7.50757C2.16357 7.43381 2.22336 7.37402 2.29712 7.37402ZM2.34733 7.50757C2.34733 7.47984 2.32485 7.45736 2.29712 7.45736C2.26939 7.45736 2.24691 7.47984 2.24691 7.50757L2.24691 9.2467C2.24691 9.27443 2.26939 9.29691 2.29712 9.29691C2.32485 9.29691 2.34733 9.27443 2.34733 9.2467L2.34733 7.50757Z" fill="black"/>
<path d="M12.6052 5.37907H12.8473V6.07011C12.8473 6.13421 12.8323 6.19139 12.8024 6.24166C12.7729 6.29192 12.7314 6.33089 12.6779 6.35856C12.6248 6.38623 12.5656 6.40007 12.5001 6.40007C12.3903 6.40007 12.305 6.3724 12.2441 6.31706C12.1833 6.26172 12.1528 6.18332 12.1528 6.08187H12.3963C12.3963 6.12798 12.4042 6.16142 12.4198 6.18217C12.436 6.20292 12.4627 6.2133 12.5001 6.2133C12.5337 6.2133 12.5596 6.20085 12.5776 6.17594C12.596 6.15058 12.6052 6.1153 12.6052 6.07011V5.37907Z" fill="black"/>
<path d="M13.5204 6.11853C13.5204 6.08302 13.5077 6.05535 13.4823 6.03552C13.4574 6.01569 13.4134 5.99517 13.3502 5.97396C13.287 5.95275 13.2354 5.93222 13.1953 5.91239C13.0648 5.84829 12.9995 5.76021 12.9995 5.64815C12.9995 5.59235 13.0157 5.54324 13.0479 5.50081C13.0807 5.45793 13.1268 5.42472 13.1863 5.4012C13.2458 5.37722 13.3126 5.36523 13.3869 5.36523C13.4593 5.36523 13.5241 5.37815 13.5813 5.40397C13.6389 5.4298 13.6836 5.46669 13.7155 5.51465C13.7473 5.56215 13.7632 5.61656 13.7632 5.6779H13.5211C13.5211 5.63685 13.5084 5.60503 13.483 5.58244C13.4581 5.55984 13.4242 5.54854 13.3813 5.54854C13.338 5.54854 13.3036 5.55823 13.2783 5.5776C13.2534 5.5965 13.2409 5.62071 13.2409 5.65023C13.2409 5.67605 13.2548 5.69957 13.2824 5.72078C13.3101 5.74154 13.3588 5.76321 13.4284 5.78581C13.498 5.80794 13.5552 5.83192 13.5999 5.85775C13.7088 5.92046 13.7632 6.00693 13.7632 6.11715C13.7632 6.20523 13.73 6.2744 13.6636 6.32467C13.5972 6.37493 13.5061 6.40007 13.3903 6.40007C13.3087 6.40007 13.2347 6.38554 13.1683 6.35649C13.1023 6.32697 13.0525 6.28685 13.0189 6.23612C12.9857 6.18494 12.9691 6.12614 12.9691 6.05973H13.2126C13.2126 6.11369 13.2264 6.15358 13.2541 6.1794C13.2822 6.20477 13.3276 6.21745 13.3903 6.21745C13.4305 6.21745 13.462 6.20892 13.4851 6.19185C13.5086 6.17433 13.5204 6.14989 13.5204 6.11853Z" fill="black"/>
<path d="M14.5504 6.78813H14.0129V6.67175L14.2605 6.4115C14.3215 6.34203 14.352 6.28684 14.352 6.24593C14.352 6.21278 14.3448 6.18757 14.3303 6.17029C14.3159 6.15301 14.2949 6.14437 14.2674 6.14437C14.2402 6.14437 14.2182 6.15601 14.2013 6.17928C14.1843 6.2022 14.1759 6.23094 14.1759 6.2655H13.9971C13.9971 6.21825 14.0089 6.1747 14.0325 6.13485C14.0561 6.09465 14.0889 6.06326 14.1309 6.04069C14.1729 6.01812 14.2198 6.00684 14.2716 6.00684C14.3548 6.00684 14.4188 6.02606 14.4636 6.06449C14.5088 6.10293 14.5313 6.15812 14.5313 6.23006C14.5313 6.26039 14.5257 6.29001 14.5144 6.31893C14.5031 6.34749 14.4855 6.37764 14.4615 6.40938C14.4379 6.44077 14.3996 6.48291 14.3467 6.53581L14.2473 6.65059H14.5504V6.78813Z" fill="black"/>
</svg>
