<svg width="120" height="120" viewBox="0 0 120 120" fill="none" xmlns="http://www.w3.org/2000/svg">
<path d="M0 24C0 10.7452 10.7452 0 24 0H96C109.255 0 120 10.7452 120 24V96C120 109.255 109.255 120 96 120H24C10.7452 120 0 109.255 0 96V24Z" fill="#F3DC1E"/>
<path d="M80.61 27.1807H83.7727V36.208C83.7727 37.0454 83.5769 37.7924 83.1853 38.4491C82.7998 39.1057 82.2576 39.6148 81.5588 39.9762C80.866 40.3377 80.0919 40.5184 79.2364 40.5184C77.8027 40.5184 76.6882 40.1569 75.893 39.434C75.0978 38.7111 74.7002 37.687 74.7002 36.3617H77.881C77.881 36.9641 77.9834 37.4008 78.1882 37.6719C78.3991 37.943 78.7485 38.0786 79.2364 38.0786C79.6762 38.0786 80.0136 37.9159 80.2485 37.5906C80.4895 37.2593 80.61 36.7984 80.61 36.208V27.1807Z" fill="black"/>
<path d="M92.5651 36.8406C92.5651 36.3767 92.3994 36.0153 92.0681 35.7562C91.7428 35.4972 91.1674 35.2291 90.3421 34.952C89.5168 34.6749 88.8421 34.4068 88.318 34.1478C86.6131 33.3104 85.7607 32.1598 85.7607 30.6959C85.7607 29.9669 85.9715 29.3254 86.3932 28.7711C86.821 28.2109 87.4234 27.7771 88.2005 27.4699C88.9776 27.1566 89.8511 27 90.8211 27C91.7669 27 92.6133 27.1687 93.3603 27.506C94.1133 27.8434 94.6976 28.3253 95.1133 28.9519C95.529 29.5723 95.7368 30.2832 95.7368 31.0844H92.5741C92.5741 30.5483 92.4084 30.1326 92.0771 29.8374C91.7518 29.5422 91.309 29.3946 90.7488 29.3946C90.1825 29.3946 89.7337 29.5211 89.4023 29.7742C89.077 30.0212 88.9144 30.3374 88.9144 30.723C88.9144 31.0603 89.0951 31.3676 89.4566 31.6447C89.818 31.9158 90.4536 32.1989 91.3632 32.4941C92.2729 32.7833 93.0199 33.0965 93.6042 33.4339C95.026 34.2532 95.7368 35.3827 95.7368 36.8225C95.7368 37.9731 95.3031 38.8768 94.4356 39.5334C93.5681 40.1901 92.3783 40.5184 90.8662 40.5184C89.7999 40.5184 88.8331 40.3286 87.9656 39.9491C87.1041 39.5635 86.4535 39.0394 86.0137 38.3768C85.58 37.7081 85.3631 36.94 85.3631 36.0725H88.5439C88.5439 36.7773 88.7246 37.2984 89.0861 37.6358C89.4535 37.9671 90.0469 38.1328 90.8662 38.1328C91.3903 38.1328 91.803 38.0213 92.1042 37.7984C92.4114 37.5695 92.5651 37.2502 92.5651 36.8406Z" fill="black"/>
<path fill-rule="evenodd" clip-rule="evenodd" d="M39.5654 28.1192C42.0914 26.6608 45.2036 26.6608 47.7297 28.1192L69.2129 40.5225C71.7389 41.981 73.295 44.6762 73.295 47.593V72.3997C73.295 75.3165 71.7389 78.0118 69.2129 79.4702L47.7297 91.8735C45.2036 93.3319 42.0914 93.3319 39.5654 91.8735L18.0821 79.4702C15.5561 78.0118 14 75.3165 14 72.3997V47.593C14 44.6762 15.5561 41.981 18.0821 40.5225L39.5654 28.1192Z" fill="black"/>
<path d="M39.8702 32.3006C42.1781 30.9675 45.0215 30.9675 47.3294 32.3006L65.6702 42.8943C67.9781 44.2274 69.3998 46.6909 69.3998 49.357V70.5445C69.3998 73.2106 67.9781 75.6742 65.6702 77.0072L47.3294 87.601C45.0215 88.934 42.1781 88.934 39.8702 87.601L21.5294 77.0072C19.2215 75.6742 17.7998 73.2106 17.7998 70.5445V49.357C17.7998 46.6909 19.2215 44.2274 21.5294 42.8943L39.8702 32.3006Z" fill="#F3DC1E"/>
<path fill-rule="evenodd" clip-rule="evenodd" d="M43.5639 34.5113C44.0445 33.6762 45.1111 33.389 45.9461 33.8696L65.6356 45.2026C66.4706 45.6832 66.7579 46.7497 66.2773 47.5847C65.7967 48.4198 64.7301 48.707 63.8951 48.2264L44.2056 36.8934C43.3706 36.4128 43.0833 35.3463 43.5639 34.5113Z" fill="black"/>
<path fill-rule="evenodd" clip-rule="evenodd" d="M43.7616 85.5102C43.2666 84.6837 43.5353 83.6123 44.3618 83.1173L63.8514 71.4438C64.6779 70.9487 65.7493 71.2174 66.2444 72.044C66.7394 72.8705 66.4707 73.9419 65.6442 74.4369L46.1546 86.1104C45.3281 86.6055 44.2567 86.3368 43.7616 85.5102Z" fill="black"/>
<path fill-rule="evenodd" clip-rule="evenodd" d="M21.5729 46.9082C22.5363 46.9082 23.3174 47.6892 23.3174 48.6527L23.3174 71.3708C23.3174 72.3343 22.5363 73.1153 21.5729 73.1153C20.6094 73.1153 19.8284 72.3343 19.8284 71.3708L19.8284 48.6527C19.8284 47.6892 20.6094 46.9082 21.5729 46.9082Z" fill="black"/>
<path d="M101.985 45.738C101.219 45.738 100.536 45.6074 99.9376 45.3462C99.3424 45.0815 98.872 44.7185 98.5265 44.2572C98.1845 43.7924 98.0083 43.2564 97.998 42.6491H100.235C100.249 42.9035 100.333 43.1275 100.487 43.3208C100.644 43.5108 100.853 43.6584 101.113 43.7635C101.373 43.8687 101.665 43.9213 101.99 43.9213C102.329 43.9213 102.628 43.8619 102.888 43.7432C103.148 43.6245 103.351 43.4599 103.498 43.2496C103.646 43.0393 103.719 42.7967 103.719 42.5219C103.719 42.2437 103.64 41.9978 103.483 41.784C103.329 41.5669 103.107 41.3973 102.816 41.2751C102.529 41.153 102.187 41.092 101.79 41.092H100.81V39.4737H101.79C102.125 39.4737 102.421 39.4161 102.678 39.3007C102.937 39.1854 103.139 39.0259 103.283 38.8224C103.427 38.6154 103.498 38.3746 103.498 38.0998C103.498 37.8385 103.435 37.6096 103.309 37.4128C103.185 37.2126 103.011 37.0566 102.785 36.9446C102.563 36.8327 102.303 36.7767 102.005 36.7767C101.704 36.7767 101.429 36.831 101.179 36.9395C100.93 37.0447 100.729 37.1957 100.579 37.3924C100.428 37.5892 100.348 37.8199 100.338 38.0845H98.2084C98.2187 37.484 98.3914 36.9548 98.7266 36.4968C99.0619 36.0388 99.5134 35.6809 100.081 35.4231C100.652 35.1619 101.297 35.0312 102.016 35.0312C102.741 35.0312 103.375 35.1619 103.919 35.4231C104.463 35.6843 104.886 36.0371 105.187 36.4815C105.491 36.9226 105.642 37.4179 105.638 37.9675C105.642 38.551 105.459 39.0378 105.089 39.4279C104.723 39.8181 104.246 40.0657 103.658 40.1709V40.2523C104.431 40.3507 105.019 40.617 105.423 41.0512C105.83 41.4821 106.031 42.0215 106.028 42.6695C106.031 43.2632 105.859 43.7907 105.51 44.2521C105.164 44.7134 104.687 45.0764 104.078 45.3411C103.469 45.6057 102.772 45.738 101.985 45.738Z" fill="black"/>
</svg>
