<svg width="32" height="32" viewBox="0 0 32 32" fill="none" xmlns="http://www.w3.org/2000/svg">
<path d="M16 0C24.8366 0 32 7.16344 32 16C32 24.8366 24.8366 32 16 32C7.16344 32 0 24.8366 0 16C0 7.16344 7.16344 0 16 0ZM16 1.41602C7.94544 1.41602 1.41602 7.94544 1.41602 16C1.41602 24.0546 7.94544 30.584 16 30.584C24.0546 30.584 30.584 24.0546 30.584 16C30.584 7.94544 24.0546 1.41602 16 1.41602Z" fill="black"/>
<rect x="1.41602" y="1.41602" width="29.1681" height="29.1681" rx="14.5841" fill="#F2DA3A"/>
<path d="M24.3935 13.7495L23.6517 13.0085L23.9778 12.6827C24.127 12.5336 24.208 12.3761 24.2208 12.21C24.2294 12.0396 24.159 11.8884 24.0098 11.7564L22.9483 10.8238C22.6755 10.5853 22.5455 10.3063 22.5582 9.98691C22.571 9.65899 22.7245 9.3481 23.0186 9.05425L23.0634 9.09897C22.7693 9.39282 22.4602 9.54826 22.1362 9.5653C21.8165 9.57808 21.5394 9.45031 21.3049 9.18201L20.3713 8.12158C20.2221 7.95549 20.0665 7.88097 19.9045 7.898C19.7468 7.91078 19.5912 7.99382 19.4377 8.14714L19.1116 8.47294L18.3762 7.7383L18.8174 7.29751C19.0562 7.05903 19.3098 6.89507 19.5784 6.80563C19.8512 6.71194 20.1177 6.70129 20.3777 6.77369C20.6377 6.84609 20.8765 7.00366 21.0939 7.24641L22.0339 8.31323C22.1916 8.49636 22.3579 8.59005 22.5327 8.59431C22.7074 8.59857 22.8908 8.50487 23.0826 8.31323L23.8435 7.55304L24.5789 8.28768L23.818 9.04786C23.6261 9.23951 23.5323 9.42263 23.5366 9.59724C23.5409 9.77185 23.6368 9.94006 23.8244 10.1019L24.8603 11.009C25.1075 11.2305 25.2674 11.4711 25.3399 11.7309C25.4166 11.9949 25.4102 12.2653 25.3207 12.5421C25.2354 12.8147 25.0734 13.0702 24.8347 13.3087L24.3935 13.7495Z" fill="black"/>
<path d="M13.3258 24.806C13.087 25.0445 12.8291 25.2085 12.552 25.2979C12.2792 25.3831 12.0106 25.3873 11.7463 25.3107C11.4863 25.2383 11.2454 25.0786 11.0237 24.8316L10.1157 23.7967C9.95369 23.6093 9.78531 23.5135 9.61052 23.5092C9.44 23.5007 9.25668 23.5944 9.06058 23.7903L8.29963 24.5505L7.56425 23.8159L8.32521 23.0557C8.52131 22.8598 8.61509 22.6767 8.60657 22.5063C8.6023 22.3317 8.50852 22.1656 8.32521 22.008L7.25732 21.069C7.01433 20.8518 6.8566 20.6133 6.78413 20.3535C6.71166 20.0937 6.72018 19.8297 6.8097 19.5614C6.90349 19.2888 7.06974 19.0333 7.30847 18.7948L7.7497 18.354L8.48508 19.0887L8.15895 19.4145C8.00549 19.5678 7.92022 19.7253 7.90316 19.8872C7.89038 20.0448 7.96712 20.1981 8.13337 20.3471L9.19487 21.2798C9.46344 21.514 9.59134 21.7908 9.57855 22.1102C9.56576 22.4296 9.41015 22.7384 9.11174 23.0365L9.06697 22.9918C9.36112 22.6979 9.6702 22.5468 9.99419 22.5382C10.3182 22.5212 10.5995 22.649 10.8383 22.9215L11.7719 23.9819C11.9083 24.1267 12.0596 24.197 12.2259 24.1928C12.3921 24.18 12.5499 24.0991 12.6991 23.95L13.0252 23.6242L13.767 24.3652L13.3258 24.806Z" fill="black"/>
<path d="M26.1763 20.1546L20.169 26.1559L18.3714 24.36L19.1063 23.6258L20.1014 24.62L24.6389 20.0871L23.6437 19.093L24.3787 18.3588L26.1763 20.1546Z" fill="black"/>
<path d="M11.9545 5.94727L5.94727 11.9485L7.74489 13.7443L8.47983 13.0101L7.48471 12.016L12.0221 7.48316L13.0172 8.47728L13.7522 7.74309L11.9545 5.94727Z" fill="black"/>
<path d="M16.1112 22.0262C15.3067 22.0262 14.6095 21.8923 14.0195 21.6244C13.4295 21.3565 12.9736 20.976 12.6518 20.4831C12.3408 19.9795 12.1799 19.3901 12.1691 18.715H14.1804C14.1804 19.1972 14.352 19.5776 14.6953 19.8562C15.0493 20.1241 15.5266 20.2581 16.1273 20.2581C16.7065 20.2581 17.1571 20.1241 17.4789 19.8562C17.8114 19.5883 17.9777 19.2186 17.9777 18.7471C17.9777 18.3506 17.8597 18.0077 17.6237 17.7184C17.3984 17.4184 17.0712 17.2148 16.6422 17.1076L15.2906 16.7379C14.3681 16.5022 13.6548 16.0789 13.1506 15.4681C12.6572 14.8573 12.4105 14.1179 12.4105 13.2499C12.4105 12.5855 12.5607 12.0069 12.861 11.5139C13.1614 11.021 13.5851 10.6406 14.1321 10.3727C14.6899 10.1048 15.3442 9.97086 16.0951 9.97086C17.2321 9.97086 18.1332 10.2655 18.7982 10.8549C19.4633 11.4336 19.8012 12.2158 19.8119 13.2017H17.8007C17.8007 12.7409 17.6505 12.3819 17.3501 12.1248C17.0498 11.8569 16.6261 11.7229 16.079 11.7229C15.5534 11.7229 15.1458 11.8461 14.8562 12.0926C14.5666 12.3391 14.4217 12.6873 14.4217 13.1374C14.4217 13.5446 14.529 13.8929 14.7435 14.1822C14.9688 14.4608 15.2906 14.6591 15.7089 14.7769L17.1088 15.1627C18.042 15.3985 18.7553 15.8217 19.2488 16.4325C19.7422 17.0326 19.9889 17.7773 19.9889 18.6668C19.9889 19.3312 19.828 19.9205 19.5062 20.4349C19.1844 20.9385 18.7339 21.3297 18.1546 21.6083C17.5754 21.8869 16.8943 22.0262 16.1112 22.0262Z" fill="black"/>
</svg>
