<svg width="16" height="16" viewBox="0 0 16 16" fill="none" xmlns="http://www.w3.org/2000/svg">
<path d="M8.3252 0.958008C9.9433 1.04014 11.4778 1.72003 12.6289 2.87109C13.8568 4.09901 14.5478 5.76346 14.5498 7.5L14.5352 7.62598C14.5254 7.66737 14.5113 7.7078 14.4922 7.74609C14.454 7.82246 14.3984 7.8892 14.3301 7.94043L8.5498 12.2754V13.4502H9C9.14587 13.4502 9.28553 13.5082 9.38867 13.6113C9.49182 13.7145 9.5498 13.8541 9.5498 14C9.5498 14.1459 9.49182 14.2855 9.38867 14.3887C9.28553 14.4918 9.14587 14.5498 9 14.5498H7C6.85413 14.5498 6.71447 14.4918 6.61133 14.3887C6.50818 14.2855 6.4502 14.1459 6.4502 14C6.4502 13.8541 6.50818 13.7145 6.61133 13.6113C6.71447 13.5082 6.85413 13.4502 7 13.4502H7.4502V12.2754L1.66992 7.94043V7.93945C1.66635 7.93686 1.66338 7.93367 1.66016 7.93066V7.93164C1.59474 7.8805 1.54124 7.81488 1.50488 7.74023C1.46853 7.66551 1.45006 7.5831 1.4502 7.5C1.4522 5.76346 2.14317 4.09901 3.37109 2.87109C4.59901 1.64317 6.26346 0.952196 8 0.950195L8.3252 0.958008ZM8 10.8672L9.56543 8.0498H6.43457L8 10.8672ZM6.2666 10.0127L5.17578 8.0498H3.65039L6.2666 10.0127ZM9.73242 10.0127L12.3496 8.0498H10.8242L9.73242 10.0127ZM9.54785 2.27637C10.224 3.20012 10.9355 4.69414 11.0361 6.9502H13.4219C13.3094 5.86015 12.8719 4.82872 12.165 3.99023C11.4778 3.17514 10.5676 2.58009 9.54785 2.27637ZM8 2.19336C7.6826 2.47988 7.40462 2.80723 7.1748 3.16797C6.70808 3.88799 6.1575 5.10571 6.06445 6.9502H9.93555C9.8425 5.10572 9.29197 3.88856 8.8252 3.16602C8.5952 2.80604 8.31729 2.47916 8 2.19336ZM6.45117 2.27637C5.4318 2.58017 4.52198 3.17538 3.83496 3.99023C3.1281 4.82872 2.69062 5.86015 2.57812 6.9502H4.96387C5.06449 4.69452 5.77514 3.20015 6.45117 2.27637Z" fill="var(--colors-controll-default-color)" stroke="var(--colors-controll-default-color)" stroke-width="0.1"/>
</svg>
