<svg width="16" height="16" viewBox="0 0 16 16" fill="none" xmlns="http://www.w3.org/2000/svg">
<path d="M13.5 8.55C13.8038 8.55 14.05 8.30376 14.05 8C14.05 7.69624 13.8038 7.45 13.5 7.45V8V8.55ZM2.11109 7.61109C1.8963 7.82588 1.8963 8.17412 2.11109 8.38891L5.61127 11.8891C5.82606 12.1039 6.1743 12.1039 6.38909 11.8891C6.60388 11.6743 6.60388 11.3261 6.38909 11.1113L3.27782 8L6.38909 4.88873C6.60388 4.67394 6.60388 4.3257 6.38909 4.11091C6.1743 3.89612 5.82606 3.89612 5.61127 4.11091L2.11109 7.61109ZM13.5 8V7.45H2.5V8V8.55H13.5V8Z" fill="var(--colors-controll-default-color)"/>
</svg>
