<svg width="16" height="16" viewBox="0 0 16 16" fill="none" xmlns="http://www.w3.org/2000/svg">
<path d="M13.5 2.5H2.5C2.23478 2.5 1.98043 2.60536 1.79289 2.79289C1.60536 2.98043 1.5 3.23478 1.5 3.5V12.5C1.5 12.7652 1.60536 13.0196 1.79289 13.2071C1.98043 13.3946 2.23478 13.5 2.5 13.5H13.5C13.7652 13.5 14.0196 13.3946 14.2071 13.2071C14.3946 13.0196 14.5 12.7652 14.5 12.5V3.5C14.5 3.23478 14.3946 2.98043 14.2071 2.79289C14.0196 2.60536 13.7652 2.5 13.5 2.5ZM13.5 12.5H2.5V3.5H13.5V12.5ZM11.5 6C11.5 6.13261 11.4473 6.25979 11.3536 6.35355C11.2598 6.44732 11.1326 6.5 11 6.5H5C4.86739 6.5 4.74021 6.44732 4.64645 6.35355C4.55268 6.25979 4.5 6.13261 4.5 6C4.5 5.86739 4.55268 5.74021 4.64645 5.64645C4.74021 5.55268 4.86739 5.5 5 5.5H11C11.1326 5.5 11.2598 5.55268 11.3536 5.64645C11.4473 5.74021 11.5 5.86739 11.5 6ZM11.5 8C11.5 8.13261 11.4473 8.25979 11.3536 8.35355C11.2598 8.44732 11.1326 8.5 11 8.5H5C4.86739 8.5 4.74021 8.44732 4.64645 8.35355C4.55268 8.25979 4.5 8.13261 4.5 8C4.5 7.86739 4.55268 7.74021 4.64645 7.64645C4.74021 7.55268 4.86739 7.5 5 7.5H11C11.1326 7.5 11.2598 7.55268 11.3536 7.64645C11.4473 7.74021 11.5 7.86739 11.5 8ZM11.5 10C11.5 10.1326 11.4473 10.2598 11.3536 10.3536C11.2598 10.4473 11.1326 10.5 11 10.5H5C4.86739 10.5 4.74021 10.4473 4.64645 10.3536C4.55268 10.2598 4.5 10.1326 4.5 10C4.5 9.86739 4.55268 9.74021 4.64645 9.64645C4.74021 9.55268 4.86739 9.5 5 9.5H11C11.1326 9.5 11.2598 9.55268 11.3536 9.64645C11.4473 9.74021 11.5 9.86739 11.5 10Z" fill="#292823"/>
</svg>
