<svg width="16" height="16" viewBox="0 0 16 16" fill="none" xmlns="http://www.w3.org/2000/svg">
<path d="M8 1.4502C9.04705 1.4502 10.0731 1.74652 10.959 2.30469C11.8307 2.85405 12.5307 3.63567 12.9834 4.56055L14.2803 3.99512H14.2812C14.4142 3.94054 14.5631 3.94018 14.6963 3.99414C14.8295 4.0481 14.9366 4.15154 14.9941 4.2832C15.0516 4.41486 15.0548 4.56391 15.0039 4.69824C14.9529 4.83266 14.8512 4.94252 14.7207 5.00293H14.7197L13.3701 5.5957C13.4897 6.05559 13.5511 6.5286 13.5498 7.00391V7.4541H15C15.1458 7.4541 15.2855 7.51215 15.3887 7.61523C15.4918 7.71833 15.5498 7.85811 15.5498 8.00391C15.5498 8.14973 15.4918 8.28944 15.3887 8.39258C15.2855 8.49572 15.1459 8.55371 15 8.55371H13.5498V9.00098C13.5511 9.47597 13.4896 9.94859 13.3701 10.4082L14.7227 11H14.7236C14.8374 11.0518 14.93 11.1414 14.9863 11.2529C15.0427 11.3647 15.0592 11.4928 15.0332 11.6152C15.0072 11.7376 14.9405 11.8475 14.8438 11.9268C14.7469 12.006 14.6252 12.0496 14.5 12.0508C14.4621 12.0509 14.4246 12.0468 14.3877 12.0391L14.2803 12.0049L12.9834 11.4404C12.5307 12.3657 11.831 13.1477 10.959 13.6973C10.0731 14.2554 9.04705 14.5518 8 14.5518C6.95295 14.5518 5.92689 14.2554 5.04102 13.6973C4.16892 13.1477 3.46835 12.3658 3.01562 11.4404L1.71973 12.0049C1.65047 12.0353 1.57566 12.0509 1.5 12.0508C1.37373 12.0507 1.25129 12.0074 1.15332 11.9277C1.05534 11.848 0.987721 11.7369 0.961914 11.6133C0.936141 11.4897 0.953873 11.3612 1.01172 11.249C1.06964 11.1368 1.16455 11.0477 1.28027 10.9971L2.62891 10.4092C2.50935 9.94936 2.44886 9.47621 2.4502 9.00098V8.55078H1C0.854132 8.55078 0.714473 8.49279 0.611328 8.38965C0.508184 8.2865 0.450196 8.14684 0.450195 8.00098C0.450195 7.85511 0.508184 7.71545 0.611328 7.6123C0.714473 7.50916 0.854131 7.45117 1 7.45117H2.4502V7.00098L2.46094 6.63477C2.48328 6.28277 2.53997 5.93362 2.62891 5.5918L1.28027 5.00488V5.00391C1.21296 4.9761 1.15099 4.93639 1.09961 4.88477C1.04805 4.83293 1.00794 4.77088 0.980469 4.70312C0.952982 4.63525 0.939456 4.56248 0.94043 4.48926C0.941412 4.41604 0.956062 4.34348 0.985352 4.27637C1.0146 4.20937 1.05746 4.14909 1.11035 4.09863C1.1634 4.04812 1.22644 4.00841 1.29492 3.98242C1.36336 3.95647 1.43662 3.94467 1.50977 3.94727C1.58269 3.9499 1.65447 3.96646 1.7207 3.99707H1.71973L3.01562 4.56055C3.46836 3.6355 4.16917 2.85412 5.04102 2.30469C5.92689 1.74652 6.95295 1.4502 8 1.4502ZM3.5498 9.00098C3.55112 10.095 3.95515 11.1504 4.68457 11.9658C5.40165 12.7674 6.38431 13.2812 7.4502 13.415V8.55078H3.5498V9.00098ZM8.5498 13.415C9.61569 13.2812 10.5983 12.7674 11.3154 11.9658C12.0448 11.1504 12.4489 10.095 12.4502 9.00098V8.55078H8.5498V13.415ZM8 2.55078C6.81979 2.55078 5.68805 3.01996 4.85352 3.85449C4.01898 4.68903 3.5498 5.82076 3.5498 7.00098V7.45117H12.4502V7.00098C12.4502 5.82076 11.981 4.68903 11.1465 3.85449C10.3119 3.01996 9.18021 2.55078 8 2.55078ZM9.90625 4.9668C10.0613 4.9977 10.2036 5.07373 10.3154 5.18555C10.4272 5.29737 10.5033 5.43964 10.5342 5.59473C10.565 5.74975 10.5496 5.91058 10.4893 6.05664C10.4287 6.20282 10.3259 6.32811 10.1943 6.41602C10.0628 6.50391 9.90822 6.55078 9.75 6.55078C9.53783 6.55078 9.3346 6.46643 9.18457 6.31641C9.03454 6.16638 8.9502 5.96315 8.9502 5.75098C8.9502 5.59276 8.99707 5.4382 9.08496 5.30664C9.17287 5.17508 9.29816 5.07227 9.44434 5.01172C9.59039 4.95133 9.75123 4.93596 9.90625 4.9668ZM6.25 4.95117C6.46217 4.95117 6.6654 5.03552 6.81543 5.18555C6.96546 5.33558 7.0498 5.5388 7.0498 5.75098C7.0498 5.90919 7.00294 6.06376 6.91504 6.19531C6.82713 6.32687 6.70184 6.42968 6.55566 6.49023C6.40961 6.55062 6.24877 6.56599 6.09375 6.53516C5.93867 6.50426 5.79639 6.42823 5.68457 6.31641C5.57275 6.20459 5.49672 6.06231 5.46582 5.90723C5.43499 5.75221 5.45035 5.59137 5.51074 5.44531C5.57129 5.29913 5.6741 5.17384 5.80566 5.08594C5.93722 4.99804 6.09178 4.95117 6.25 4.95117Z" fill="var(--colors-controll-default-color)" stroke="var(--colors-controll-default-color)" stroke-width="0.1"/>
</svg>
