<svg width="16" height="16" viewBox="0 0 16 16" fill="none" xmlns="http://www.w3.org/2000/svg">
<path d="M6 2.4502C7.57331 2.4502 8.95652 2.74631 9.94824 3.24219C10.9381 3.73714 11.5498 4.43813 11.5498 5.25V5.55469C12.7409 5.71735 13.7333 6.05551 14.4316 6.5166C15.1383 6.98325 15.5498 7.58027 15.5498 8.25V10.75C15.5498 11.5619 14.9381 12.2629 13.9482 12.7578C12.9565 13.2537 11.5733 13.5498 10 13.5498C8.42669 13.5498 7.04348 13.2537 6.05176 12.7578C5.06194 12.2629 4.4502 11.5619 4.4502 10.75V10.4463C3.28448 10.2878 2.29232 9.95312 1.58789 9.49219C0.875079 9.02572 0.450195 8.4261 0.450195 7.75V5.25C0.450195 4.43813 1.06194 3.73714 2.05176 3.24219C3.04348 2.74631 4.42669 2.4502 6 2.4502ZM8.5498 12.3457C9.5119 12.4827 10.4881 12.4827 11.4502 12.3457V10.959C11.0942 11.0036 10.7365 11.0327 10.3779 11.0439L10 11.0498C9.515 11.05 9.03076 11.0173 8.5498 10.9551V12.3457ZM6.70508 10.5283C6.47486 10.5418 6.24023 10.5498 6 10.5498C5.84755 10.5498 5.69778 10.5453 5.5498 10.54V10.75C5.5498 10.9874 5.72723 11.2459 6.07031 11.4922C6.39909 11.7282 6.87087 11.9437 7.4502 12.1113V10.751C7.19827 10.6891 6.94945 10.6154 6.70508 10.5283ZM14.4502 9.96289C13.9515 10.2983 13.3048 10.5701 12.5498 10.7568V12.1113C13.1291 11.9437 13.6009 11.7282 13.9297 11.4922C14.2728 11.2459 14.4502 10.9874 14.4502 10.75V9.96289ZM11.5498 7.75C11.5498 8.66759 10.7702 9.44015 9.54297 9.93848C9.6943 9.94518 9.84673 9.9502 10 9.9502C11.2822 9.9502 12.4003 9.71989 13.1963 9.38867C13.5945 9.22296 13.91 9.03255 14.125 8.83496C14.3407 8.63669 14.4502 8.43664 14.4502 8.25C14.4502 8.11383 14.3865 7.96371 14.2559 7.80859C14.1252 7.65363 13.9298 7.49648 13.6748 7.34863C13.1755 7.05919 12.4518 6.80822 11.5498 6.66797V7.75ZM7.4502 7.95898C7.09415 8.0036 6.73646 8.0327 6.37793 8.04395L6 8.0498C5.51512 8.05049 5.03089 8.01927 4.5498 7.95898V9.3457C5.03016 9.4146 5.51469 9.45073 6 9.4502L6.375 9.44336C6.73485 9.43044 7.09361 9.39685 7.4502 9.3457V7.95898ZM1.5498 7.75C1.5498 7.98737 1.72723 8.2459 2.07031 8.49219C2.39909 8.72819 2.87087 8.94375 3.4502 9.11133V7.75684C2.69524 7.57008 2.04853 7.29827 1.5498 6.96289V7.75ZM10.4502 6.96289C9.95147 7.29827 9.30476 7.57008 8.5498 7.75684V9.11133C9.12913 8.94375 9.60091 8.72819 9.92969 8.49219C10.2728 8.2459 10.4502 7.98737 10.4502 7.75V6.96289ZM6 3.5498C4.71783 3.5498 3.5997 3.78011 2.80371 4.11133C2.40554 4.27704 2.08999 4.46745 1.875 4.66504C1.65927 4.86331 1.5498 5.06336 1.5498 5.25C1.5498 5.43664 1.65927 5.63669 1.875 5.83496C2.08999 6.03255 2.40554 6.22296 2.80371 6.38867C3.5997 6.71989 4.71783 6.9502 6 6.9502C7.28217 6.9502 8.4003 6.71989 9.19629 6.38867C9.59446 6.22296 9.91001 6.03255 10.125 5.83496C10.3407 5.63669 10.4502 5.43664 10.4502 5.25C10.4502 5.06336 10.3407 4.86331 10.125 4.66504C9.91001 4.46745 9.59446 4.27704 9.19629 4.11133C8.4003 3.78011 7.28217 3.5498 6 3.5498Z" fill="#292617" stroke="#292617" stroke-width="0.1"/>
</svg>
