<svg width="16" height="16" viewBox="0 0 16 16" fill="none" xmlns="http://www.w3.org/2000/svg">
<path d="M8 1.4502C9.73659 1.45203 11.4019 2.14216 12.6299 3.37012C13.8578 4.59807 14.548 6.26341 14.5498 8L14.54 8.3457C14.4942 9.13254 14.289 9.7735 13.9434 10.2344C13.547 10.7628 12.9692 11.0498 12.25 11.0498C11.3987 11.0498 10.7493 10.6477 10.3613 9.92285C9.99123 10.3778 9.49919 10.7187 8.94043 10.9004C8.35787 11.0898 7.73166 11.0992 7.14355 10.9277C6.55546 10.7562 6.03204 10.4123 5.64258 9.93945C5.25307 9.46653 5.01554 8.88652 4.95996 8.27637C4.90445 7.66646 5.03362 7.0539 5.33105 6.51855C5.62871 5.98303 6.08138 5.54935 6.62891 5.27441C7.1764 4.99953 7.79413 4.89545 8.40137 4.97656C8.97285 5.05293 9.50868 5.29165 9.9502 5.66016V5.5C9.9502 5.35413 10.0082 5.21447 10.1113 5.11133C10.2145 5.00818 10.3541 4.9502 10.5 4.9502C10.6459 4.9502 10.7855 5.00818 10.8887 5.11133C10.9918 5.21447 11.0498 5.35413 11.0498 5.5V8C11.0498 8.82097 11.2194 9.30721 11.4502 9.58789C11.6795 9.8667 11.9756 9.9502 12.25 9.9502C12.5244 9.9502 12.8205 9.8667 13.0498 9.58789C13.2806 9.30721 13.4502 8.82097 13.4502 8C13.4502 6.92209 13.1301 5.86793 12.5312 4.97168C11.9325 4.07572 11.0815 3.37729 10.0859 2.96484C9.09008 2.55235 7.99372 2.44401 6.93652 2.6543C5.87938 2.8646 4.90865 3.38432 4.14648 4.14648C3.38432 4.90865 2.8646 5.87938 2.6543 6.93652C2.44401 7.99372 2.55235 9.09008 2.96484 10.0859C3.37729 11.0815 4.07572 11.9325 4.97168 12.5312C5.86793 13.1301 6.92209 13.4502 8 13.4502C9.12947 13.4502 10.3564 13.1009 11.1953 12.542C11.2554 12.5021 11.3228 12.4739 11.3936 12.46C11.4644 12.4461 11.5376 12.4467 11.6084 12.4609C11.6792 12.4752 11.7467 12.5037 11.8066 12.5439C11.8665 12.5841 11.9181 12.6353 11.958 12.6953C11.998 12.7555 12.0261 12.8236 12.04 12.8945C12.0539 12.9653 12.0533 13.0386 12.0391 13.1094C12.0248 13.1799 11.9971 13.2469 11.957 13.3066C11.9167 13.3666 11.8649 13.419 11.8047 13.459C10.7751 14.143 9.35318 14.5498 8 14.5498C6.26283 14.5498 4.59653 13.8602 3.36816 12.6318C2.1398 11.4035 1.4502 9.73717 1.4502 8C1.4502 6.26283 2.1398 4.59653 3.36816 3.36816C4.59653 2.1398 6.26283 1.4502 8 1.4502ZM8.74609 6.19824C8.38983 6.05072 7.99734 6.01266 7.61914 6.08789C7.24107 6.1632 6.89369 6.3485 6.62109 6.62109C6.3485 6.89369 6.1632 7.24107 6.08789 7.61914C6.01266 7.99734 6.05072 8.38983 6.19824 8.74609C6.34583 9.10241 6.59632 9.40682 6.91699 9.62109C7.23764 9.83531 7.61437 9.9502 8 9.9502C8.51717 9.9502 9.01321 9.7446 9.37891 9.37891C9.7446 9.01321 9.9502 8.51717 9.9502 8C9.9502 7.61437 9.83531 7.23764 9.62109 6.91699C9.40682 6.59632 9.10241 6.34583 8.74609 6.19824Z" fill="var(--colors-controll-default-color)" stroke="var(--colors-controll-default-color)" stroke-width="0.1"/>
</svg>
