<svg width="16" height="16" viewBox="0 0 16 16" fill="none" xmlns="http://www.w3.org/2000/svg">
<path d="M7.66504 1.10742C8.06977 0.949592 8.51099 0.909692 8.9375 0.992188C9.36397 1.07472 9.75855 1.27588 10.0752 1.57324C10.3039 1.78853 10.4865 2.04866 10.6113 2.33691C10.7361 2.62511 10.8003 2.93597 10.8008 3.25C10.8009 3.3169 10.7959 3.38357 10.79 3.4502H13.001C13.2794 3.45021 13.5463 3.56091 13.7432 3.75781C13.94 3.95472 14.0508 4.22155 14.0508 4.5V7.16797C14.0508 7.26078 14.0272 7.35229 13.9824 7.43359C13.9377 7.51476 13.8732 7.58325 13.7949 7.63281C13.7165 7.68242 13.6268 7.71118 13.5342 7.7168C13.4415 7.7224 13.3485 7.70483 13.2646 7.66504C13.0819 7.57872 12.8804 7.5394 12.6787 7.55176C12.4768 7.56417 12.2813 7.62811 12.1104 7.73633C11.9396 7.84448 11.7987 7.99385 11.7012 8.1709C11.6036 8.34815 11.5518 8.54768 11.5518 8.75C11.5518 8.95223 11.6037 9.15094 11.7012 9.32812C11.7987 9.50538 11.9394 9.65543 12.1104 9.76367C12.2813 9.87186 12.4768 9.93486 12.6787 9.94727C12.8804 9.95963 13.0819 9.92127 13.2646 9.83496L13.3291 9.80859C13.3948 9.78699 13.4647 9.77808 13.5342 9.78223C13.6266 9.7878 13.7166 9.8168 13.7949 9.86621C13.8734 9.9158 13.9376 9.9851 13.9824 10.0664C14.0272 10.1478 14.0508 10.2392 14.0508 10.332V13C14.0508 13.2785 13.9401 13.5453 13.7432 13.7422C13.5463 13.9391 13.2794 14.0498 13.001 14.0498H4.00098C3.72253 14.0498 3.4557 13.9391 3.25879 13.7422C3.06189 13.5453 2.95119 13.2785 2.95117 13V11.041C2.82899 11.052 2.7064 11.0557 2.58398 11.0469H2.58301C2.02939 11.0054 1.50903 10.7654 1.11816 10.3711C0.727398 9.97675 0.491692 9.45435 0.455078 8.90039C0.433454 8.58591 0.477551 8.27035 0.583984 7.97363C0.690515 7.6768 0.857451 7.40484 1.07422 7.17578C1.28953 6.94709 1.54964 6.76444 1.83789 6.63965C2.12609 6.5149 2.43693 6.4507 2.75098 6.4502C2.81785 6.45008 2.88457 6.45415 2.95117 6.45996V4.5C2.95117 4.22152 3.06188 3.95473 3.25879 3.75781C3.4557 3.5609 3.7225 3.4502 4.00098 3.4502H6.21191C6.20113 3.32804 6.19852 3.2054 6.20703 3.08301C6.23867 2.64966 6.39235 2.23337 6.65039 1.88379C6.90841 1.53437 7.26038 1.26528 7.66504 1.10742ZM8.50098 2.05078C8.29865 2.05078 8.09913 2.10264 7.92188 2.2002C7.74483 2.29774 7.59545 2.43859 7.4873 2.60938C7.37909 2.78029 7.31514 2.97582 7.30273 3.17773C7.29038 3.37943 7.3297 3.58096 7.41602 3.76367C7.45581 3.84752 7.47338 3.94056 7.46777 4.0332C7.46216 4.12582 7.43339 4.21553 7.38379 4.29395C7.33423 4.37226 7.26574 4.43671 7.18457 4.48145C7.10327 4.5262 7.01176 4.54984 6.91895 4.5498H4.05078V7.16797C4.05081 7.26078 4.02718 7.35229 3.98242 7.43359C3.93769 7.51476 3.87324 7.58325 3.79492 7.63281C3.7165 7.68242 3.6268 7.71118 3.53418 7.7168C3.44154 7.7224 3.34849 7.70483 3.26465 7.66504C3.08193 7.57872 2.88041 7.5394 2.67871 7.55176C2.4768 7.56417 2.28127 7.62811 2.11035 7.73633C1.93957 7.84448 1.79872 7.99385 1.70117 8.1709C1.60362 8.34815 1.55176 8.54768 1.55176 8.75C1.55177 8.95223 1.60369 9.15094 1.70117 9.32812C1.79873 9.50538 1.93942 9.65543 2.11035 9.76367C2.28125 9.87186 2.47682 9.93486 2.67871 9.94727C2.88041 9.95963 3.08193 9.92127 3.26465 9.83496L3.3291 9.80859C3.39491 9.78698 3.46462 9.77802 3.53418 9.78223C3.62682 9.78784 3.71649 9.81758 3.79492 9.86719C3.87325 9.91677 3.9377 9.98521 3.98242 10.0664C4.02718 10.1477 4.05081 10.2392 4.05078 10.332V12.9502H12.9512V11.0391L12.751 11.0498C12.1546 11.0511 11.5811 10.8207 11.1514 10.4072C10.7217 9.99383 10.469 9.4298 10.4473 8.83398C10.4256 8.23803 10.6366 7.65654 11.0352 7.21289C11.4337 6.76931 11.9892 6.49817 12.584 6.45605C12.7064 6.44728 12.829 6.44995 12.9512 6.46094V4.5498H10.083C9.9902 4.54984 9.89869 4.5262 9.81738 4.48145C9.73619 4.43672 9.66774 4.37227 9.61816 4.29395C9.56855 4.21552 9.53881 4.12584 9.5332 4.0332C9.5276 3.94056 9.54615 3.84752 9.58594 3.76367C9.67225 3.58096 9.71061 3.37943 9.69824 3.17773C9.68584 2.97585 9.62284 2.78028 9.51465 2.60938C9.4064 2.43844 9.25635 2.29775 9.0791 2.2002C8.90191 2.10271 8.70321 2.05079 8.50098 2.05078Z" fill="var(--colors-controll-default-color)" stroke="var(--colors-controll-default-color)" stroke-width="0.1"/>
</svg>
