<svg width="16" height="16" viewBox="0 0 16 16" fill="none" xmlns="http://www.w3.org/2000/svg">
<path d="M2 2.5498C2.11935 2.5498 2.23397 2.59725 2.31836 2.68164C2.40275 2.76603 2.4502 2.88065 2.4502 3V9.00781L2.5332 8.93555L5.70312 6.16309C5.78078 6.09511 5.88027 6.05565 5.9834 6.05176C6.08633 6.04797 6.18711 6.07982 6.26953 6.1416L9.94531 8.89844L9.97852 8.92285L10.0088 8.89551L13.7031 5.66309L13.7061 5.66016C13.7495 5.61719 13.8015 5.58381 13.8584 5.56152C13.9155 5.53918 13.9768 5.52813 14.0381 5.53027C14.0993 5.53241 14.1595 5.54708 14.2148 5.57324C14.2703 5.59951 14.3199 5.6375 14.3604 5.68359C14.4008 5.72967 14.4313 5.78346 14.4502 5.8418C14.4691 5.90005 14.4764 5.9615 14.4707 6.02246C14.4649 6.08354 14.4465 6.14349 14.417 6.19727C14.3875 6.25096 14.3472 6.29832 14.2988 6.33594L14.2969 6.33691L10.2969 9.83691C10.2192 9.90489 10.1197 9.94435 10.0166 9.94824C9.91367 9.95203 9.81289 9.92018 9.73047 9.8584L6.05469 7.10352L6.02148 7.0791L5.99121 7.10547L2.4668 10.1895L2.4502 10.2041V12.5498H14C14.1193 12.5498 14.234 12.5972 14.3184 12.6816C14.4028 12.766 14.4502 12.8807 14.4502 13C14.4502 13.1193 14.4028 13.234 14.3184 13.3184C14.234 13.4028 14.1193 13.4502 14 13.4502H2C1.88065 13.4502 1.76603 13.4028 1.68164 13.3184C1.59725 13.234 1.5498 13.1193 1.5498 13V3C1.5498 2.88065 1.59725 2.76603 1.68164 2.68164C1.74501 2.61827 1.82549 2.57584 1.91211 2.55859L2 2.5498Z" fill="var(--colors-controll-default-color)" stroke="var(--colors-controll-default-color)" stroke-width="0.1"/>
</svg>
