<svg width="16" height="16" viewBox="0 0 16 16" fill="none" xmlns="http://www.w3.org/2000/svg">
<path d="M6.58594 4.95117C7.50472 4.95124 8.38631 5.31628 9.03613 5.96582C9.36875 6.29938 9.63034 6.69716 9.80469 7.13477C9.97905 7.57248 10.063 8.04169 10.0508 8.5127C10.0466 8.65839 9.98386 8.79635 9.87793 8.89648C9.77202 8.99653 9.63098 9.05085 9.48535 9.04688C9.33957 9.04277 9.20081 8.98093 9.10059 8.875C9.00038 8.769 8.94614 8.62725 8.9502 8.48145C8.96439 8.00747 8.83584 7.53957 8.58105 7.13965C8.32627 6.73986 7.95695 6.42567 7.52148 6.23828C7.086 6.05094 6.60414 5.99896 6.13867 6.08887C5.67312 6.17881 5.24554 6.40701 4.91113 6.74316L2.74219 8.91504C2.41188 9.24558 2.1869 9.66669 2.0957 10.125C2.0045 10.5834 2.05179 11.0584 2.23047 11.4902C2.40922 11.9221 2.71208 12.2919 3.10059 12.5518C3.48901 12.8115 3.94581 12.9508 4.41309 12.9512C4.72462 12.9524 5.03343 12.8916 5.32129 12.7725C5.60914 12.6533 5.87029 12.4778 6.08984 12.2568L6.78125 11.5654C6.88711 11.478 7.02204 11.4336 7.15918 11.4404C7.29654 11.4473 7.4268 11.5057 7.52344 11.6035C7.61981 11.7013 7.67641 11.8316 7.68164 11.9688C7.68682 12.1062 7.63979 12.2409 7.55078 12.3457L6.86035 13.0361C6.53935 13.3588 6.15781 13.6149 5.7373 13.7891C5.31666 13.9632 4.86544 14.0521 4.41016 14.0508C3.72548 14.0501 3.05632 13.8466 2.4873 13.4658C1.91831 13.085 1.47461 12.5438 1.21289 11.9111C0.951225 11.2783 0.882787 10.5817 1.0166 9.91016C1.15045 9.23866 1.48064 8.62181 1.96484 8.1377L4.13574 5.96582C4.78563 5.31621 5.66706 4.95117 6.58594 4.95117ZM11.585 1.9502C12.0401 1.95023 12.4907 2.03969 12.9111 2.21387C13.3317 2.38811 13.7143 2.64388 14.0361 2.96582C14.3693 3.2999 14.6313 3.6983 14.8057 4.13672C14.9583 4.52045 15.041 4.92794 15.0508 5.33984V5.5166C15.0253 6.39972 14.6611 7.23885 14.0352 7.8623L14.0361 7.86328L11.8643 10.0361C11.5433 10.3589 11.1608 10.6149 10.7402 10.7891C10.3722 10.9414 9.98098 11.0283 9.58398 11.0469L9.41406 11.0508H9.41113C8.94824 11.0505 8.48979 10.9577 8.06348 10.7773C7.63719 10.597 7.25128 10.3329 6.92871 10.001C6.60612 9.66898 6.3536 9.27508 6.18555 8.84375C6.01757 8.41249 5.93723 7.95189 5.9502 7.48926C5.95433 7.34363 6.0163 7.20564 6.12207 7.10547C6.22807 7.00527 6.36983 6.95103 6.51562 6.95508C6.66149 6.95918 6.80015 7.02091 6.90039 7.12695C7.00056 7.23298 7.05488 7.3747 7.05078 7.52051C7.04188 7.83624 7.09632 8.15099 7.21094 8.44531C7.32558 8.73947 7.49778 9.00793 7.71777 9.23438C7.93786 9.46089 8.20133 9.6406 8.49219 9.76367C8.78312 9.88676 9.09621 9.95097 9.41211 9.95117C9.72234 9.95192 10.0298 9.89111 10.3164 9.77246C10.6032 9.65367 10.864 9.47884 11.083 9.25879L13.2549 7.08691L13.4102 6.91309C13.751 6.49206 13.9382 5.96436 13.9365 5.41797C13.9345 4.79354 13.6857 4.19545 13.2441 3.75391C12.8026 3.31236 12.2045 3.06353 11.5801 3.06152C11.0337 3.05981 10.506 3.24707 10.085 3.58789L9.91113 3.74316L9.22266 4.43164C9.1187 4.53029 8.98023 4.58484 8.83691 4.58301C8.69358 4.58114 8.55646 4.52322 8.45508 4.42188C8.35372 4.32052 8.29585 4.18336 8.29395 4.04004C8.29211 3.89673 8.34666 3.75825 8.44531 3.6543L9.13379 2.96582C9.45553 2.64397 9.8374 2.3881 10.2578 2.21387C10.6784 2.03963 11.1297 1.9502 11.585 1.9502Z" fill="#292823" stroke="#292823" stroke-width="0.1"/>
</svg>
