<svg width="16" height="16" viewBox="0 0 16 16" fill="none" xmlns="http://www.w3.org/2000/svg">
<path d="M13.265 1.87461C13.0915 1.57599 12.8334 1.3354 12.5234 1.18315C12.2134 1.03091 11.8652 0.973806 11.5228 1.01905C11.1804 1.06429 10.859 1.20985 10.5991 1.43739C10.3393 1.66493 10.1526 1.96428 10.0625 2.29773L9.25003 5.31773L8.44066 2.29773C8.38847 2.06811 8.29048 1.85138 8.15256 1.66052C8.01463 1.46967 7.83961 1.30861 7.63796 1.187C7.43632 1.06538 7.2122 0.985714 6.97904 0.952764C6.74588 0.919814 6.50847 0.934259 6.28102 0.995234C6.05357 1.05621 5.84077 1.16246 5.65536 1.30762C5.46995 1.45279 5.31574 1.63388 5.20197 1.84005C5.0882 2.04622 5.01721 2.27323 4.99325 2.50749C4.96929 2.74174 4.99286 2.97843 5.06253 3.20336L5.64878 5.39086L5.10316 5.28586C4.73013 5.20909 4.34224 5.25611 3.99836 5.41977C3.65447 5.58344 3.37337 5.85482 3.1977 6.19273C3.02203 6.53063 2.96138 6.91663 3.02497 7.29212C3.08856 7.66762 3.2729 8.01213 3.55003 8.27336C3.3751 8.43743 3.23596 8.63587 3.14131 8.85624C3.04667 9.07661 2.99857 9.31416 3.00003 9.55398V9.99961C3.00003 11.3257 3.52682 12.5975 4.4645 13.5351C5.40218 14.4728 6.67395 14.9996 8.00003 14.9996H8.03816C10.7744 14.979 13 12.7109 13 9.94336V9.73461C12.9995 8.95876 12.7407 8.20517 12.2644 7.59273L13.4375 3.20336C13.4982 2.98149 13.5141 2.74978 13.4845 2.52169C13.4549 2.29359 13.3803 2.07365 13.265 1.87461ZM6.10066 2.37461C6.17472 2.24581 6.28538 2.14192 6.41858 2.0761C6.55178 2.01028 6.70153 1.98551 6.84883 2.00493C6.99614 2.02435 7.13435 2.08708 7.24595 2.18516C7.35755 2.28325 7.4375 2.41227 7.47566 2.55586L8.39878 6.00274C8.08567 6.02189 7.78346 6.12486 7.52378 6.30086C7.52082 6.29522 7.51748 6.28979 7.51378 6.28461C7.32728 6.00161 7.06168 5.7797 6.75003 5.64648L6.02628 2.94461C6.00038 2.8494 5.99362 2.75 6.00638 2.65216C6.01915 2.55432 6.05119 2.45998 6.10066 2.37461ZM4.01566 6.84961C4.03544 6.75261 4.07424 6.66049 4.1298 6.57856C4.18536 6.49663 4.25659 6.42651 4.33939 6.37224C4.42218 6.31797 4.5149 6.28063 4.6122 6.26237C4.7095 6.24412 4.80945 6.2453 4.90628 6.26586L6.20066 6.51586C6.29719 6.53554 6.3889 6.57405 6.47054 6.62918C6.55219 6.68431 6.62217 6.75498 6.6765 6.83717C6.73082 6.91935 6.76843 7.01143 6.78715 7.10815C6.80588 7.20487 6.80538 7.30434 6.78566 7.40086C6.76587 7.49786 6.72708 7.58998 6.67152 7.67191C6.61595 7.75384 6.54472 7.82396 6.46193 7.87823C6.37913 7.9325 6.28641 7.96984 6.18911 7.9881C6.09182 8.00635 5.99187 8.00517 5.89503 7.98461L4.59816 7.73461C4.4038 7.69429 4.23335 7.57856 4.12416 7.41279C4.01497 7.24702 3.97595 7.04472 4.01566 6.85023V6.84961ZM4.01566 9.39461C4.05535 9.20163 4.16939 9.03203 4.33312 8.92245C4.49685 8.81286 4.69712 8.77211 4.89066 8.80898L5.52253 8.93398C5.71735 8.97374 5.88842 9.08923 5.99812 9.25506C6.10782 9.4209 6.14717 9.62351 6.10753 9.81836C6.0878 9.91509 6.04916 10.007 5.99383 10.0887C5.93851 10.1705 5.86758 10.2405 5.78513 10.2948C5.70267 10.3491 5.61031 10.3866 5.51334 10.4051C5.41636 10.4236 5.31669 10.4228 5.22003 10.4027L4.59503 10.2777C4.40031 10.2377 4.22944 10.122 4.11998 9.95606C4.01052 9.79011 3.97143 9.58749 4.01128 9.39273L4.01566 9.39461ZM12 9.94336C12 12.164 10.2194 13.9834 8.03128 13.9996C7.17502 14.0057 6.33936 13.7372 5.6469 13.2335C4.95445 12.7298 4.44166 12.0174 4.18378 11.2009C4.25506 11.2249 4.32768 11.2447 4.40128 11.2602L5.02628 11.3852C5.14168 11.4087 5.25914 11.4207 5.37691 11.4209C5.68492 11.4208 5.98745 11.3394 6.25394 11.185C6.52043 11.0305 6.74143 10.8085 6.89463 10.5413C7.04783 10.2741 7.12779 9.97116 7.12643 9.66315C7.12508 9.35515 7.04245 9.05296 6.88691 8.78711C6.93628 8.76024 6.98503 8.73148 7.03191 8.69961L7.04191 8.71586C7.16828 8.90819 7.33158 9.07353 7.52234 9.20227C7.7131 9.33101 7.92751 9.42061 8.15316 9.46586L8.54816 9.54461C8.4733 9.90597 8.48847 10.2802 8.59234 10.6343C8.69621 10.9884 8.88559 11.3116 9.14378 11.5752C9.23747 11.6661 9.36299 11.7168 9.49351 11.7163C9.62404 11.7159 9.74923 11.6645 9.84234 11.573C9.93545 11.4815 9.98909 11.3573 9.99182 11.2268C9.99454 11.0963 9.94612 10.9699 9.85691 10.8746C9.67 10.6839 9.54908 10.4384 9.51185 10.1739C9.47462 9.90952 9.52305 9.64013 9.65003 9.40524C9.68737 9.33643 9.70804 9.25981 9.71036 9.18156C9.71268 9.10331 9.69659 9.02561 9.66339 8.95471C9.63019 8.88381 9.58081 8.8217 9.51921 8.77337C9.45762 8.72505 9.38554 8.69186 9.30878 8.67649L8.35003 8.48461C8.15533 8.44471 7.98442 8.32917 7.87484 8.16335C7.76527 7.99752 7.726 7.79499 7.76566 7.60023C7.7854 7.50363 7.824 7.41187 7.87924 7.3302C7.93449 7.24853 8.00529 7.17855 8.08761 7.12428C8.16992 7.07 8.26213 7.03248 8.35896 7.01388C8.45579 6.99528 8.55534 6.99595 8.65191 7.01586L9.99003 7.28336C10.5562 7.39773 11.0655 7.70417 11.4318 8.15084C11.7981 8.59751 11.9988 9.15698 12 9.73461V9.94336ZM12.4744 2.94336L11.4357 6.81836C11.057 6.56556 10.6322 6.38972 10.1857 6.30086L10.0294 6.26961L11.025 2.55648C11.0493 2.46009 11.0926 2.36949 11.1522 2.28996C11.2119 2.21042 11.2867 2.14354 11.3725 2.0932C11.4582 2.04286 11.5531 2.01006 11.6516 1.99672C11.7501 1.98338 11.8503 1.98976 11.9463 2.01549C12.0424 2.04121 12.1323 2.08577 12.211 2.14658C12.2896 2.20739 12.3554 2.28322 12.4045 2.36968C12.4536 2.45613 12.485 2.55148 12.4969 2.65019C12.5088 2.74889 12.5009 2.84897 12.4738 2.94461L12.4744 2.94336Z" fill="var(--colors-controll-default-color)" stroke="var(--colors-controll-default-color)" stroke-width="0.1"/>
</svg>
