<svg width="16" height="16" viewBox="0 0 16 16" fill="none" xmlns="http://www.w3.org/2000/svg">
<path d="M8 0.952148C8.17628 0.952148 8.3496 0.99681 8.50391 1.08203L14.0039 4.09082C14.1691 4.1812 14.3073 4.31462 14.4033 4.47656C14.4993 4.63848 14.5497 4.82348 14.5498 5.01172V10.9893C14.5493 11.1772 14.4983 11.3619 14.4023 11.5234C14.3063 11.6849 14.1687 11.818 14.0039 11.9082L8.50391 14.918C8.34957 15.0032 8.17632 15.0479 8 15.0479C7.82368 15.0479 7.65043 15.0032 7.49609 14.918L1.99609 11.9082C1.83132 11.818 1.69369 11.6849 1.59766 11.5234C1.50166 11.3619 1.45067 11.1772 1.4502 10.9893V5.01172C1.45062 4.82377 1.50166 4.63912 1.59766 4.47754C1.69369 4.31594 1.83119 4.18301 1.99609 4.09277L7.49609 1.08203C7.6504 0.99681 7.82372 0.952148 8 0.952148ZM2.5498 10.959L7.4502 13.6387V8.3916L2.5498 5.70996V10.959ZM8.5498 8.39355V13.6387L13.4502 10.957V5.70996L8.5498 8.39355ZM3.08301 4.75098L8 7.44336L12.916 4.75098L8 2.05762L3.08301 4.75098Z" fill="#292617" stroke="#292617" stroke-width="0.1"/>
</svg>
