<svg width="16" height="16" viewBox="0 0 16 16" fill="none" xmlns="http://www.w3.org/2000/svg">
<path d="M8 1.5C6.71442 1.5 5.45772 1.88122 4.3888 2.59545C3.31988 3.30968 2.48676 4.32484 1.99479 5.51256C1.50282 6.70028 1.37409 8.00721 1.6249 9.26809C1.8757 10.529 2.49477 11.6872 3.40381 12.5962C4.31285 13.5052 5.47104 14.1243 6.73192 14.3751C7.99279 14.6259 9.29973 14.4972 10.4874 14.0052C11.6752 13.5132 12.6903 12.6801 13.4046 11.6112C14.1188 10.5423 14.5 9.28558 14.5 8C14.498 6.2767 13.8126 4.62455 12.594 3.406C11.3754 2.18744 9.7233 1.50198 8 1.5ZM13.5 8C13.5004 8.50723 13.4304 9.01205 13.2919 9.5H10.885C11.0383 8.50588 11.0383 7.49412 10.885 6.5H13.2919C13.4304 6.98795 13.5004 7.49277 13.5 8ZM6.375 10.5H9.625C9.30482 11.5491 8.74899 12.5111 8 13.3125C7.2513 12.5109 6.69551 11.549 6.375 10.5ZM6.13125 9.5C5.95959 8.50737 5.95959 7.49263 6.13125 6.5H9.87375C10.0454 7.49263 10.0454 8.50737 9.87375 9.5H6.13125ZM2.5 8C2.49957 7.49277 2.56961 6.98795 2.70813 6.5H5.115C4.96167 7.49412 4.96167 8.50588 5.115 9.5H2.70813C2.56961 9.01205 2.49957 8.50723 2.5 8ZM9.625 5.5H6.375C6.69518 4.45088 7.25102 3.48886 8 2.6875C8.74871 3.48908 9.3045 4.45102 9.625 5.5ZM12.8956 5.5H10.6694C10.3888 4.47057 9.91588 3.50355 9.27563 2.65C10.0492 2.83583 10.7734 3.18674 11.3987 3.67866C12.024 4.17058 12.5355 4.79189 12.8981 5.5H12.8956ZM6.72438 2.65C6.08413 3.50355 5.61122 4.47057 5.33063 5.5H3.10188C3.46455 4.79189 3.97605 4.17058 4.60131 3.67866C5.22657 3.18674 5.95081 2.83583 6.72438 2.65ZM3.10188 10.5H5.33063C5.61122 11.5294 6.08413 12.4965 6.72438 13.35C5.95081 13.1642 5.22657 12.8133 4.60131 12.3213C3.97605 11.8294 3.46455 11.2081 3.10188 10.5ZM9.27563 13.35C9.91588 12.4965 10.3888 11.5294 10.6694 10.5H12.8981C12.5355 11.2081 12.024 11.8294 11.3987 12.3213C10.7734 12.8133 10.0492 13.1642 9.27563 13.35Z" fill="#292617"/>
</svg>
