<svg width="16" height="16" viewBox="0 0 16 16" fill="none" xmlns="http://www.w3.org/2000/svg">
<path d="M9.5 1.4502C9.91109 1.4502 10.305 1.61362 10.5957 1.9043C10.8864 2.19498 11.0498 2.58891 11.0498 3V3.4502H13.5C13.7785 3.4502 14.0453 3.5609 14.2422 3.75781C14.4391 3.95473 14.5498 4.22152 14.5498 4.5V12.5C14.5498 12.7785 14.4391 13.0453 14.2422 13.2422C14.0453 13.4391 13.7785 13.5498 13.5 13.5498H2.5C2.22152 13.5498 1.95473 13.4391 1.75781 13.2422C1.5609 13.0453 1.4502 12.7785 1.4502 12.5V4.5C1.4502 4.22152 1.5609 3.95473 1.75781 3.75781C1.95473 3.5609 2.22152 3.4502 2.5 3.4502H4.9502V3C4.9502 2.58891 5.11362 2.19498 5.4043 1.9043C5.69498 1.61362 6.08891 1.4502 6.5 1.4502H9.5ZM2.5498 12.4502H13.4502V10.0498H2.5498V12.4502ZM2.5498 8.9502H13.4502V4.5498H2.5498V8.9502ZM6.5 2.5498C6.38065 2.5498 6.26603 2.59725 6.18164 2.68164C6.09725 2.76603 6.0498 2.88065 6.0498 3V3.4502H9.9502V3C9.9502 2.88065 9.90275 2.76603 9.81836 2.68164C9.73397 2.59725 9.61935 2.5498 9.5 2.5498H6.5Z" fill="#292823" stroke="#292823" stroke-width="0.1"/>
</svg>
