<svg width="17" height="16" viewBox="0 0 17 16" fill="none" xmlns="http://www.w3.org/2000/svg">
<path d="M8.84961 6.9502L9.05273 6.96191C9.25405 6.98476 9.45054 7.04121 9.63379 7.12988C9.87831 7.24822 10.0932 7.42073 10.2617 7.63379C10.4301 7.84676 10.5486 8.09531 10.6074 8.36035C10.6605 8.59976 10.6601 8.84659 10.6143 9.08691L13.1562 8.50293C13.3899 8.44038 13.6349 8.43228 13.8721 8.47949C14.104 8.52567 14.3218 8.62466 14.5107 8.7666H14.5146L14.5283 8.77637C14.7425 8.93987 14.9116 9.15546 15.0195 9.40234C15.1274 9.64912 15.1708 9.91936 15.1455 10.1875C15.1201 10.4558 15.0263 10.7133 14.874 10.9355C14.7217 11.1578 14.5154 11.3375 14.2744 11.458L14.2725 11.459L14.2451 11.4717L14.2441 11.4727L11.8145 12.5049C11.7879 12.5165 11.7606 12.5255 11.7324 12.5322L11.7334 12.5332L7.7334 13.5332C7.71163 13.5387 7.68923 13.5431 7.66699 13.5459L7.59961 13.5498H1.09961C0.821132 13.5498 0.554335 13.4391 0.357422 13.2422C0.160509 13.0453 0.0498047 12.7785 0.0498047 12.5V10C0.0498049 9.72152 0.160509 9.45473 0.357422 9.25781C0.554335 9.0609 0.821132 8.9502 1.09961 8.9502H2.87207L4.27148 7.5498C4.4613 7.35927 4.68708 7.20842 4.93555 7.10547C5.18433 7.00246 5.45144 6.94956 5.7207 6.9502H8.84961ZM5.62793 8.05469C5.53505 8.06359 5.44393 8.08621 5.35742 8.12207C5.24231 8.1698 5.1376 8.23969 5.0498 8.32812L3.64941 9.72754V12.4502H7.5293L11.4238 11.4756L13.7881 10.4688C13.8945 10.4128 13.9777 10.3198 14.0195 10.207C14.0613 10.0942 14.0599 9.96929 14.0156 9.85742C13.9713 9.74564 13.887 9.65413 13.7793 9.60059C13.6716 9.54702 13.5476 9.5352 13.4316 9.56738H13.4307L13.4111 9.57324H13.4102L9.22266 10.5361C9.18239 10.5451 9.14086 10.5497 9.09961 10.5498H7.09961C6.95374 10.5498 6.81408 10.4918 6.71094 10.3887C6.60779 10.2855 6.5498 10.1459 6.5498 10C6.5498 9.85413 6.60779 9.71447 6.71094 9.61133C6.81408 9.50818 6.95374 9.4502 7.09961 9.4502H8.84961C9.03526 9.4502 9.21345 9.37639 9.34473 9.24512C9.476 9.11384 9.5498 8.93565 9.5498 8.75C9.5498 8.56435 9.476 8.38616 9.34473 8.25488C9.21345 8.12361 9.03526 8.0498 8.84961 8.0498H5.7207L5.62793 8.05469ZM1.14941 12.4502H2.5498V10.0498H1.14941V12.4502ZM9.45605 1.63086C9.84577 1.46654 10.2732 1.41273 10.6914 1.47559C11.1098 1.5385 11.5029 1.71553 11.8271 1.9873C12.1407 2.25024 12.3773 2.59257 12.5146 2.97754C12.9351 2.91541 13.3647 2.97026 13.7559 3.1377C14.1596 3.31053 14.5059 3.59583 14.7529 3.95898C14.9997 4.32204 15.137 4.74867 15.1494 5.1875C15.1617 5.62639 15.0483 6.0601 14.8223 6.43652C14.5962 6.81278 14.2671 7.11621 13.874 7.31152C13.4807 7.50692 13.0392 7.5864 12.6025 7.53906C12.1661 7.49169 11.7524 7.31992 11.4102 7.04492C11.0784 6.77829 10.8273 6.42481 10.6846 6.02441C10.6362 6.03149 10.5878 6.03802 10.5391 6.04199L10.3496 6.0498C9.92649 6.04981 9.51146 5.93348 9.15039 5.71289C8.78934 5.49229 8.49583 5.17629 8.30273 4.7998C8.10964 4.42327 8.02411 4.0001 8.05566 3.57812C8.08726 3.15646 8.23477 2.75164 8.48145 2.4082C8.72839 2.06457 9.06617 1.79533 9.45605 1.63086ZM12.8496 4.0498C12.6123 4.0498 12.38 4.1201 12.1826 4.25195C11.9853 4.38381 11.832 4.57177 11.7412 4.79102C11.6504 5.01026 11.6266 5.25164 11.6729 5.48438C11.7192 5.71704 11.8332 5.93088 12.001 6.09863C12.1687 6.26639 12.3826 6.38042 12.6152 6.42676C12.848 6.47305 13.0894 6.44919 13.3086 6.3584C13.5278 6.26759 13.7158 6.11429 13.8477 5.91699C13.9795 5.71965 14.0498 5.48734 14.0498 5.25C14.0498 4.93174 13.9233 4.62641 13.6982 4.40137C13.4732 4.17632 13.1679 4.0498 12.8496 4.0498ZM10.2314 2.55566C9.95657 2.58285 9.698 2.70434 9.50098 2.90137C9.27593 3.12641 9.14941 3.43174 9.14941 3.75C9.14941 4.06826 9.27593 4.37359 9.50098 4.59863C9.72602 4.82368 10.0313 4.9502 10.3496 4.9502L10.4775 4.94336C10.509 4.93996 10.5401 4.93357 10.5713 4.92773C10.6148 4.62357 10.7184 4.33088 10.877 4.06738C11.0356 3.80383 11.2457 3.57544 11.4941 3.39453C11.42 3.1558 11.2738 2.9454 11.0742 2.79395C10.8657 2.6358 10.6113 2.54994 10.3496 2.5498L10.2314 2.55566Z" fill="var(--colors-controll-default-color)" stroke="var(--colors-controll-default-color)" stroke-width="0.1"/>
</svg>
