<svg width="16" height="16" viewBox="0 0 16 16" fill="none" xmlns="http://www.w3.org/2000/svg">
<path d="M5.5 9.45117C5.64587 9.45117 5.78553 9.50916 5.88867 9.6123C5.99175 9.71544 6.0498 9.85515 6.0498 10.001C6.04975 10.1468 5.99177 10.2866 5.88867 10.3896C5.78554 10.4927 5.64582 10.5508 5.5 10.5508H3.82715L4.65625 11.3799C5.57744 12.3011 6.82518 12.8215 8.12793 12.8291C9.43045 12.8367 10.6834 12.331 11.6152 11.4209L11.6299 11.4062H11.6348C11.7376 11.3177 11.8687 11.2694 12.0049 11.2725C12.1485 11.2758 12.2853 11.3347 12.3857 11.4375C12.4862 11.5403 12.542 11.6786 12.542 11.8223C12.5419 11.9658 12.486 12.1034 12.3857 12.2061L12.3848 12.207C11.2572 13.3146 9.73877 13.9337 8.1582 13.9297H8.125C6.53074 13.925 5.00339 13.2874 3.87891 12.1572L3.0498 11.3281V13.001C3.04975 13.1468 2.99177 13.2866 2.88867 13.3896C2.78554 13.4927 2.64582 13.5508 2.5 13.5508C2.35418 13.5508 2.21446 13.4927 2.11133 13.3896C2.00823 13.2866 1.95025 13.1468 1.9502 13.001V10.001C1.9502 9.85515 2.00825 9.71544 2.11133 9.6123C2.21447 9.50916 2.35413 9.45117 2.5 9.45117H5.5ZM7.87988 2.07129C9.47245 2.08063 10.9971 2.71746 12.123 3.84375L12.9502 4.67285V3.00098C12.9502 2.85515 13.0082 2.71544 13.1113 2.6123C13.2145 2.50916 13.3541 2.45117 13.5 2.45117C13.6459 2.45117 13.7855 2.50916 13.8887 2.6123C13.9918 2.71544 14.0498 2.85515 14.0498 3.00098V6.00098C14.0498 6.14677 13.9918 6.28655 13.8887 6.38965C13.7855 6.49273 13.6458 6.55078 13.5 6.55078H10.5C10.3542 6.55078 10.2145 6.49273 10.1113 6.38965C10.0082 6.28655 9.95025 6.14677 9.9502 6.00098C9.9502 5.85515 10.0082 5.71544 10.1113 5.6123C10.2145 5.50916 10.3541 5.45117 10.5 5.45117H12.1729L11.3438 4.62207C10.4238 3.69796 9.17404 3.17605 7.87012 3.17188H7.84277C6.54981 3.16884 5.30752 3.67535 4.38477 4.58105L4.38379 4.58203C4.27875 4.68008 4.13877 4.73279 3.99512 4.72949C3.85182 4.72609 3.71552 4.66687 3.61523 4.56445C3.51482 4.4617 3.45802 4.32336 3.45801 4.17969C3.45802 4.036 3.51479 3.89768 3.61523 3.79492V3.79395C4.75435 2.68062 6.28708 2.06197 7.87988 2.07129Z" fill="#292823" stroke="#292823" stroke-width="0.1"/>
</svg>
