<svg width="16" height="16" viewBox="0 0 16 16" fill="none" xmlns="http://www.w3.org/2000/svg">
<path d="M14.041 1.45898C14.1508 1.47779 14.2536 1.52591 14.3379 1.59863C14.4219 1.67124 14.4849 1.7656 14.5195 1.87109C14.5541 1.97661 14.5598 2.08996 14.5352 2.19824L11.998 13.2344C11.9582 13.4118 11.8719 13.576 11.749 13.71C11.6263 13.8437 11.4708 13.9431 11.2979 13.998C11.2449 14.0152 11.1906 14.0285 11.1357 14.0371L10.9697 14.0498C10.7154 14.0494 10.4696 13.9559 10.2793 13.7871L7.80469 11.6201L6.25586 13.2285C6.11099 13.3798 5.92366 13.4837 5.71875 13.5273C5.51379 13.571 5.30045 13.5519 5.10645 13.4727C4.91233 13.3948 4.74585 13.2603 4.62891 13.0869C4.51206 12.9135 4.44957 12.7091 4.4502 12.5V8.88086L1.20898 8.24512C1.00931 8.20615 0.827614 8.10326 0.691406 7.95215C0.555274 7.80106 0.472192 7.6098 0.454102 7.40723C0.436037 7.20475 0.483704 7.00186 0.59082 6.8291C0.698096 6.65625 0.85922 6.52295 1.04883 6.44922L13.7148 1.49219C13.8186 1.45165 13.9313 1.44021 14.041 1.45898ZM5.88379 8.47168L10.9404 12.9062L13.1621 3.25586L5.88379 8.47168ZM5.55078 12.375L6.97656 10.8936L5.55078 9.64258V12.375ZM1.96191 7.27148L4.87305 7.84277L10.1279 4.0791L1.96191 7.27148Z" fill="var(--colors-controll-default-color)" stroke="var(--colors-controll-default-color)" stroke-width="0.1"/>
</svg>
