<svg width="16" height="16" viewBox="0 0 16 16" fill="none" xmlns="http://www.w3.org/2000/svg">
<path d="M9.97559 1.9502C10.0477 1.94701 10.1197 1.95877 10.1875 1.9834C10.2553 2.00801 10.3179 2.04512 10.3711 2.09375C10.4244 2.1425 10.4675 2.20214 10.498 2.26758C10.5285 2.33293 10.5466 2.40354 10.5498 2.47559C10.553 2.5477 10.5412 2.61965 10.5166 2.6875L6.5166 13.6875C6.47806 13.7936 6.4079 13.8854 6.31543 13.9502C6.22297 14.015 6.1129 14.0498 6 14.0498C5.93615 14.0498 5.87266 14.039 5.8125 14.0176C5.74453 13.9929 5.68128 13.9551 5.62793 13.9062C5.57474 13.8575 5.5315 13.7988 5.50098 13.7334C5.47039 13.6679 5.45335 13.5966 5.4502 13.5244C5.44707 13.4524 5.45778 13.3803 5.48242 13.3125L9.48242 2.3125C9.50703 2.2447 9.54509 2.18215 9.59375 2.12891C9.6424 2.07572 9.70133 2.03252 9.7666 2.00195C9.83204 1.97137 9.90343 1.9534 9.97559 1.9502ZM4.0498 4.95215C4.19511 4.96543 4.3295 5.0363 4.42285 5.14844C4.51595 5.26045 4.56103 5.40475 4.54785 5.5498C4.53457 5.69511 4.4637 5.8295 4.35156 5.92285L1.8584 8L4.35059 10.0762C4.40764 10.1218 4.4553 10.179 4.49023 10.2432C4.52518 10.3074 4.54735 10.3784 4.55469 10.4512C4.56196 10.5238 4.55457 10.5972 4.5332 10.667C4.51179 10.7369 4.47649 10.8022 4.42969 10.8584C4.38295 10.9144 4.32549 10.9605 4.26074 10.9941C4.19582 11.0278 4.12465 11.0478 4.05176 11.0537C3.97888 11.0596 3.90542 11.0511 3.83594 11.0283C3.80127 11.0169 3.76791 11.0023 3.73633 10.9844L3.64746 10.9219L0.647461 8.42188C0.585818 8.3704 0.536068 8.3061 0.501953 8.2334C0.467808 8.16048 0.450239 8.08051 0.450195 8C0.450195 7.91942 0.467797 7.83958 0.501953 7.7666C0.536108 7.69367 0.585622 7.62874 0.647461 7.57715L3.64746 5.07715C3.75957 4.98382 3.90454 4.9389 4.0498 4.95215ZM11.9502 4.95215C12.0219 4.94565 12.0943 4.95323 12.1631 4.97461C12.232 4.99604 12.2961 5.03101 12.3516 5.07715L15.3516 7.57715C15.4135 7.62877 15.4639 7.6936 15.498 7.7666C15.5322 7.83955 15.5498 7.91947 15.5498 8C15.5498 8.08051 15.5322 8.16048 15.498 8.2334C15.4639 8.30629 15.4134 8.37032 15.3516 8.42188L12.3516 10.9209L12.3525 10.9219C12.2975 10.9696 12.2333 11.0056 12.1641 11.0283C12.0947 11.0511 12.021 11.0596 11.9482 11.0537C11.8754 11.0478 11.8041 11.0278 11.7393 10.9941C11.6743 10.9605 11.6162 10.9146 11.5693 10.8584C11.5226 10.8022 11.4882 10.7369 11.4668 10.667C11.4454 10.5972 11.438 10.5238 11.4453 10.4512C11.4526 10.3785 11.4739 10.3074 11.5088 10.2432C11.5437 10.1789 11.5913 10.1219 11.6484 10.0762L14.1406 8L11.6475 5.92285C11.5355 5.82951 11.4654 5.69501 11.4521 5.5498C11.439 5.40468 11.484 5.26048 11.5771 5.14844C11.6234 5.09291 11.6802 5.0463 11.7441 5.0127C11.808 4.97918 11.8784 4.95871 11.9502 4.95215Z" fill="var(--colors-controll-default-color)" stroke="var(--colors-controll-default-color)" stroke-width="0.1"/>
</svg>
