<svg width="227" height="168" viewBox="0 0 227 168" fill="none" xmlns="http://www.w3.org/2000/svg">
<rect width="227" height="168" fill="#f3dc1e"/>
<path d="M25.6406 28.1763L31.5732 17.2266H36.1509L27.9233 31.3379C27.6141 31.8913 27.2764 32.408 26.9102 32.8882C26.5439 33.3683 26.137 33.7915 25.6895 34.1577C25.25 34.5158 24.7536 34.7965 24.2002 35C23.6549 35.1953 23.0446 35.297 22.3691 35.3052C22.1331 35.3052 21.8971 35.3011 21.6611 35.293C21.4333 35.293 21.2013 35.2889 20.9653 35.2808L21.2095 31.9116C21.3315 31.936 21.4577 31.9564 21.5879 31.9727C21.7181 31.9808 21.8483 31.9849 21.9785 31.9849C22.4098 31.993 22.7842 31.9401 23.1016 31.8262C23.4189 31.7041 23.6956 31.521 23.9316 31.2769C24.1676 31.0327 24.3752 30.7194 24.5542 30.3369L25.6406 28.1763ZM25.2012 17.2266L27.4473 25.1245L27.9111 29.873H25.0669L20.9531 17.2266H25.2012ZM47.7964 17.2266L44.708 35H40.5454L43.6216 17.2266H47.7964ZM57.855 17.2266L49.7983 27.9688H45.2085L45.3916 24.0991H48.0894L52.5938 17.2266H57.855ZM50.4331 35L47.6743 27.0532L51.0557 24.3188L55.1938 35H50.4331ZM65.9971 21.1694L59.4541 35H54.8276L64.2515 17.2266H67.2056L65.9971 21.1694ZM67.1201 35L65.3135 20.7422L65.4111 17.2266H68.1943L71.478 35H67.1201ZM68.0723 28.3716L67.4863 31.6797H58.6118L59.1978 28.3716H68.0723ZM79.8765 28.0542L74.9204 17.2388L80.0107 17.2266L82.3301 24.1968H85.333L84.1611 28.0542H79.8765ZM81.8174 27.4438L76.9102 35H71.5024L78.4849 25.1855L81.8174 27.4438ZM89.4834 17.2266L86.395 35H82.2324L85.3086 17.2266H89.4834ZM99.8838 17.2266L91.3877 28.0542H86.8833L87.042 24.1968H89.8252L94.415 17.2266H99.8838ZM91.7417 35L89.5322 27.1753L93.3042 25.1001L96.7954 35H91.7417ZM112.64 31.7041L112.066 35H99.9326L100.506 31.7041H112.64ZM101.898 31.7041L100.567 39.3579H96.71L97.7476 31.7041H101.898ZM115.484 31.7041L113.714 39.3701H109.942L111.285 31.7041H115.484ZM113.336 17.2266L112.762 20.5347H104.083L104.657 17.2266H113.336ZM116.131 17.2266L113.055 35H108.893L111.981 17.2266H116.131ZM104.376 17.2266H108.587L106.793 24.502C106.598 25.332 106.382 26.0929 106.146 26.7847C105.918 27.4764 105.662 28.1193 105.377 28.7134C105.092 29.2993 104.775 29.8568 104.425 30.3857C104.083 30.9066 103.705 31.4152 103.29 31.9116C102.875 32.408 102.415 32.9085 101.91 33.4131C101.414 33.9176 100.873 34.4466 100.287 35H97.5522L98.0405 31.7041L98.8096 31.7285C99.4443 31.3542 99.9692 30.8944 100.384 30.3491C100.807 29.8039 101.157 29.2098 101.434 28.5669C101.711 27.9159 101.939 27.2445 102.118 26.5527C102.297 25.861 102.459 25.1815 102.606 24.5142L104.376 17.2266ZM132.196 25.686L132.11 26.4062C131.948 27.57 131.634 28.689 131.17 29.7632C130.715 30.8293 130.112 31.7773 129.364 32.6074C128.623 33.4375 127.744 34.0926 126.727 34.5728C125.71 35.0448 124.566 35.2686 123.297 35.2441C122.076 35.2197 121.035 34.9593 120.172 34.4629C119.317 33.9665 118.634 33.3032 118.121 32.4731C117.617 31.6431 117.275 30.7113 117.096 29.6777C116.917 28.6442 116.892 27.5781 117.022 26.4795L117.108 25.7593C117.271 24.6037 117.584 23.4969 118.048 22.439C118.512 21.3729 119.118 20.4248 119.867 19.5947C120.615 18.7646 121.498 18.1177 122.516 17.6538C123.533 17.1818 124.672 16.958 125.934 16.9824C127.146 16.9987 128.18 17.255 129.034 17.7515C129.889 18.2479 130.568 18.9111 131.073 19.7412C131.585 20.5632 131.931 21.4909 132.11 22.5244C132.298 23.5498 132.326 24.6037 132.196 25.686ZM127.862 26.4795L127.96 25.7227C128.017 25.2425 128.054 24.7013 128.07 24.0991C128.086 23.4969 128.033 22.915 127.911 22.3535C127.789 21.7839 127.553 21.3118 127.203 20.9375C126.861 20.5632 126.357 20.3597 125.689 20.3271C124.949 20.2946 124.322 20.4451 123.81 20.7788C123.297 21.1043 122.874 21.5438 122.54 22.0972C122.215 22.6424 121.958 23.2365 121.771 23.8794C121.584 24.5223 121.45 25.1408 121.368 25.7349L121.271 26.4917C121.214 26.9718 121.173 27.5171 121.148 28.1274C121.132 28.7297 121.181 29.3156 121.295 29.8853C121.417 30.4549 121.653 30.931 122.003 31.3135C122.353 31.6878 122.866 31.8872 123.541 31.9116C124.265 31.9442 124.884 31.7936 125.396 31.46C125.909 31.1182 126.332 30.6706 126.666 30.1172C127.008 29.5638 127.272 28.9657 127.459 28.3228C127.655 27.6799 127.789 27.0654 127.862 26.4795ZM147.479 17.2266L146.905 20.5347H139.41L136.896 35H132.733L135.809 17.2266H147.479ZM161.639 25.686L161.554 26.4062C161.391 27.57 161.078 28.689 160.614 29.7632C160.158 30.8293 159.556 31.7773 158.807 32.6074C158.067 33.4375 157.188 34.0926 156.17 34.5728C155.153 35.0448 154.01 35.2686 152.74 35.2441C151.52 35.2197 150.478 34.9593 149.615 34.4629C148.761 33.9665 148.077 33.3032 147.564 32.4731C147.06 31.6431 146.718 30.7113 146.539 29.6777C146.36 28.6442 146.336 27.5781 146.466 26.4795L146.551 25.7593C146.714 24.6037 147.027 23.4969 147.491 22.439C147.955 21.3729 148.561 20.4248 149.31 19.5947C150.059 18.7646 150.942 18.1177 151.959 17.6538C152.976 17.1818 154.116 16.958 155.377 16.9824C156.59 16.9987 157.623 17.255 158.478 17.7515C159.332 18.2479 160.012 18.9111 160.516 19.7412C161.029 20.5632 161.375 21.4909 161.554 22.5244C161.741 23.5498 161.769 24.6037 161.639 25.686ZM157.306 26.4795L157.403 25.7227C157.46 25.2425 157.497 24.7013 157.513 24.0991C157.529 23.4969 157.477 22.915 157.354 22.3535C157.232 21.7839 156.996 21.3118 156.646 20.9375C156.305 20.5632 155.8 20.3597 155.133 20.3271C154.392 20.2946 153.766 20.4451 153.253 20.7788C152.74 21.1043 152.317 21.5438 151.983 22.0972C151.658 22.6424 151.402 23.2365 151.214 23.8794C151.027 24.5223 150.893 25.1408 150.812 25.7349L150.714 26.4917C150.657 26.9718 150.616 27.5171 150.592 28.1274C150.576 28.7297 150.624 29.3156 150.738 29.8853C150.86 30.4549 151.096 30.931 151.446 31.3135C151.796 31.6878 152.309 31.8872 152.984 31.9116C153.709 31.9442 154.327 31.7936 154.84 31.46C155.353 31.1182 155.776 30.6706 156.109 30.1172C156.451 29.5638 156.716 28.9657 156.903 28.3228C157.098 27.6799 157.232 27.0654 157.306 26.4795ZM176.898 27.4438H172.271L172.748 24.6362L176.141 24.6484C176.638 24.6484 177.114 24.5915 177.569 24.4775C178.033 24.3555 178.424 24.1439 178.741 23.8428C179.067 23.5417 179.274 23.1144 179.364 22.561C179.437 22.0565 179.396 21.6618 179.242 21.377C179.087 21.084 178.839 20.8765 178.497 20.7544C178.163 20.6242 177.765 20.555 177.301 20.5469L175.067 20.5347L172.552 35H168.377L171.454 17.2266L177.435 17.2388C178.208 17.2469 178.973 17.3324 179.73 17.4951C180.487 17.6579 181.166 17.9224 181.769 18.2886C182.371 18.6466 182.843 19.1349 183.185 19.7534C183.526 20.3638 183.669 21.1287 183.612 22.0483C183.555 23.0493 183.274 23.8631 182.77 24.4897C182.273 25.1082 181.63 25.568 180.841 25.8691C180.051 26.1621 179.197 26.3208 178.277 26.3452L176.898 27.4438ZM175.482 35H169.867L171.869 31.7041L175.616 31.7163C176.08 31.7082 176.515 31.6309 176.922 31.4844C177.337 31.3379 177.683 31.11 177.96 30.8008C178.245 30.4834 178.428 30.0806 178.509 29.5923C178.583 29.1772 178.574 28.8151 178.485 28.5059C178.403 28.1885 178.233 27.9403 177.972 27.7612C177.72 27.5822 177.378 27.4805 176.947 27.4561L173.224 27.4438L173.736 24.6362L177.789 24.6484L178.521 25.7593C179.343 25.7674 180.072 25.9139 180.707 26.1987C181.341 26.4836 181.83 26.9149 182.171 27.4927C182.521 28.0623 182.668 28.7785 182.611 29.6411C182.529 30.9676 182.147 32.0256 181.463 32.8149C180.78 33.5962 179.909 34.1577 178.851 34.4995C177.793 34.8413 176.67 35.0081 175.482 35ZM32.7207 53.4531L32.147 56.7612H24.6641L25.25 53.4531H32.7207ZM18.9023 57.9819H23.0527C23.0365 58.5679 23.1056 59.0806 23.2603 59.52C23.4149 59.9595 23.6712 60.3094 24.0293 60.5698C24.3955 60.8221 24.8919 60.9604 25.5186 60.9849C26.2754 61.0093 26.902 60.8628 27.3984 60.5454C27.903 60.228 28.3099 59.8008 28.6191 59.2637C28.9284 58.7184 29.1644 58.1284 29.3271 57.4937C29.4899 56.8507 29.612 56.2241 29.6934 55.6138L29.8154 54.625C29.8643 54.2588 29.9049 53.8438 29.9375 53.3799C29.9782 52.916 29.9863 52.4481 29.9619 51.9761C29.9375 51.5041 29.8521 51.0687 29.7056 50.6699C29.5672 50.263 29.3394 49.9334 29.022 49.6812C28.7127 49.4289 28.2936 49.2905 27.7646 49.2661C27.0648 49.2417 26.4626 49.3516 25.958 49.5957C25.4616 49.8398 25.0628 50.1979 24.7617 50.6699C24.4688 51.1419 24.2734 51.7116 24.1758 52.3789L20.0132 52.3911C20.2004 51.0402 20.6764 49.8846 21.4414 48.9243C22.2064 47.9559 23.1585 47.2194 24.2979 46.7148C25.4372 46.2021 26.6701 45.9539 27.9966 45.9702C29.201 45.9946 30.2142 46.2591 31.0361 46.7637C31.8662 47.2682 32.5173 47.9355 32.9893 48.7656C33.4694 49.5957 33.7868 50.5234 33.9414 51.5488C34.096 52.5661 34.1082 53.6037 33.978 54.6616L33.8438 55.6016C33.681 56.7572 33.3799 57.8599 32.9404 58.9097C32.5091 59.9595 31.9354 60.8913 31.2192 61.7051C30.5112 62.5107 29.6608 63.1455 28.668 63.6094C27.6833 64.0651 26.5562 64.2808 25.2866 64.2563C24.009 64.2319 22.894 63.9674 21.9419 63.4629C20.9979 62.9502 20.2614 62.23 19.7324 61.3022C19.2035 60.3664 18.9268 59.2596 18.9023 57.9819ZM45.5503 46.2266L42.4741 64H38.2871L41.3755 46.2266H45.5503ZM50.7383 46.2266L50.1646 49.5347H35.7236L36.3096 46.2266H50.7383ZM65.2524 54.686L65.167 55.4062C65.0042 56.57 64.6909 57.689 64.2271 58.7632C63.7713 59.8293 63.1691 60.7773 62.4204 61.6074C61.6799 62.4375 60.8009 63.0926 59.7837 63.5728C58.7664 64.0448 57.623 64.2686 56.3535 64.2441C55.1328 64.2197 54.0911 63.9593 53.2285 63.4629C52.374 62.9665 51.6904 62.3032 51.1777 61.4731C50.6732 60.6431 50.3314 59.7113 50.1523 58.6777C49.9733 57.6442 49.9489 56.5781 50.0791 55.4795L50.1646 54.7593C50.3273 53.6037 50.6406 52.4969 51.1045 51.439C51.5684 50.3729 52.1746 49.4248 52.9233 48.5947C53.672 47.7646 54.555 47.1177 55.5723 46.6538C56.5895 46.1818 57.7288 45.958 58.9902 45.9824C60.2028 45.9987 61.2363 46.255 62.0908 46.7515C62.9453 47.2479 63.6248 47.9111 64.1294 48.7412C64.6421 49.5632 64.988 50.4909 65.167 51.5244C65.3542 52.5498 65.3826 53.6037 65.2524 54.686ZM60.9189 55.4795L61.0166 54.7227C61.0736 54.2425 61.1102 53.7013 61.1265 53.0991C61.1427 52.4969 61.0898 51.915 60.9678 51.3535C60.8457 50.7839 60.6097 50.3118 60.2598 49.9375C59.918 49.5632 59.4134 49.3597 58.7461 49.3271C58.0055 49.2946 57.3789 49.4451 56.8662 49.7788C56.3535 50.1043 55.9303 50.5438 55.5967 51.0972C55.2712 51.6424 55.0148 52.2365 54.8276 52.8794C54.6405 53.5223 54.5062 54.1408 54.4248 54.7349L54.3271 55.4917C54.2702 55.9718 54.2295 56.5171 54.2051 57.1274C54.1888 57.7297 54.2376 58.3156 54.3516 58.8853C54.4736 59.4549 54.7096 59.931 55.0596 60.3135C55.4095 60.6878 55.9222 60.8872 56.5977 60.9116C57.3219 60.9442 57.9404 60.7936 58.4531 60.46C58.9658 60.1182 59.389 59.6706 59.7227 59.1172C60.0645 58.5638 60.3289 57.9657 60.5161 57.3228C60.7114 56.6799 60.8457 56.0654 60.9189 55.4795ZM71.0264 46.2266H74.2979L75.9946 58.5557L81.9761 46.2266H85.5161L76.5806 64H73.8096L71.0264 46.2266ZM68.8901 46.2266H72.418L70.6846 60.0327L69.9888 64H65.814L68.8901 46.2266ZM83.9658 46.2266H87.5181L84.4419 64H80.2427L80.9995 59.6787L83.9658 46.2266ZM98.4678 46.2266H101.739L103.436 58.5557L109.417 46.2266H112.958L104.022 64H101.251L98.4678 46.2266ZM96.3315 46.2266H99.8594L98.126 60.0327L97.4302 64H93.2554L96.3315 46.2266ZM111.407 46.2266H114.959L111.883 64H107.684L108.441 59.6787L111.407 46.2266ZM119.635 57.2007L127.606 46.2266H131.891L128.814 64H124.627L126.544 53.0381L118.573 64H114.276L117.364 46.2266H121.551L119.635 57.2007ZM139.471 57.9819L134.955 57.9697L135.528 54.6616L139.618 54.6738C140.147 54.6738 140.631 54.5802 141.07 54.3931C141.51 54.1978 141.872 53.917 142.157 53.5508C142.442 53.1846 142.625 52.7288 142.706 52.1836C142.779 51.736 142.767 51.3169 142.669 50.9263C142.572 50.5356 142.381 50.2142 142.096 49.9619C141.811 49.7096 141.42 49.5713 140.924 49.5469L138.006 49.5347L135.492 64H131.317L134.393 46.2266L141.058 46.2388C142.222 46.2632 143.264 46.5155 144.183 46.9956C145.103 47.4757 145.815 48.1512 146.319 49.022C146.824 49.8927 147.027 50.9385 146.93 52.1592C146.824 53.4775 146.405 54.568 145.672 55.4307C144.948 56.2933 144.037 56.9362 142.938 57.3594C141.847 57.7744 140.692 57.9819 139.471 57.9819ZM159.576 60.7041L159.002 64H149.786L150.36 60.7041H159.576ZM154.376 46.2266L151.288 64H147.113L150.189 46.2266H154.376ZM159.674 53.2822L159.125 56.4683H151.092L151.654 53.2822H159.674ZM162.115 46.2266L161.542 49.5347H152.289L152.875 46.2266H162.115ZM33.3677 89.7041L32.7939 93H20.6602L21.2339 89.7041H33.3677ZM22.6255 89.7041L21.2949 97.3579H17.4375L18.4751 89.7041H22.6255ZM36.2119 89.7041L34.4419 97.3701H30.6699L32.0127 89.7041H36.2119ZM34.0635 75.2266L33.4897 78.5347H24.8105L25.3843 75.2266H34.0635ZM36.8589 75.2266L33.7827 93H29.6201L32.7085 75.2266H36.8589ZM25.1035 75.2266H29.3149L27.5205 82.502C27.3252 83.332 27.1095 84.0929 26.8735 84.7847C26.6457 85.4764 26.3893 86.1193 26.1045 86.7134C25.8197 87.2993 25.5023 87.8568 25.1523 88.3857C24.8105 88.9066 24.4321 89.4152 24.0171 89.9116C23.6021 90.408 23.1423 90.9085 22.6377 91.4131C22.1413 91.9176 21.6001 92.4466 21.0142 93H18.2798L18.7681 89.7041L19.5371 89.7285C20.1719 89.3542 20.6968 88.8944 21.1118 88.3491C21.535 87.8039 21.8849 87.2098 22.1616 86.5669C22.4383 85.9159 22.6662 85.2445 22.8452 84.5527C23.0243 83.861 23.187 83.1815 23.3335 82.5142L25.1035 75.2266ZM52.9233 83.686L52.8379 84.4062C52.6751 85.57 52.3618 86.689 51.8979 87.7632C51.4422 88.8293 50.84 89.7773 50.0913 90.6074C49.3507 91.4375 48.4718 92.0926 47.4546 92.5728C46.4373 93.0448 45.2939 93.2686 44.0244 93.2441C42.8037 93.2197 41.762 92.9593 40.8994 92.4629C40.0449 91.9665 39.3613 91.3032 38.8486 90.4731C38.3441 89.6431 38.0023 88.7113 37.8232 87.6777C37.6442 86.6442 37.6198 85.5781 37.75 84.4795L37.8354 83.7593C37.9982 82.6037 38.3115 81.4969 38.7754 80.439C39.2393 79.3729 39.8455 78.4248 40.5942 77.5947C41.3429 76.7646 42.2259 76.1177 43.2432 75.6538C44.2604 75.1818 45.3997 74.958 46.6611 74.9824C47.8737 74.9987 48.9072 75.255 49.7617 75.7515C50.6162 76.2479 51.2957 76.9111 51.8003 77.7412C52.313 78.5632 52.6589 79.4909 52.8379 80.5244C53.0251 81.5498 53.0535 82.6037 52.9233 83.686ZM48.5898 84.4795L48.6875 83.7227C48.7445 83.2425 48.7811 82.7013 48.7974 82.0991C48.8136 81.4969 48.7607 80.915 48.6387 80.3535C48.5166 79.7839 48.2806 79.3118 47.9307 78.9375C47.5889 78.5632 47.0843 78.3597 46.417 78.3271C45.6764 78.2946 45.0498 78.4451 44.5371 78.7788C44.0244 79.1043 43.6012 79.5438 43.2676 80.0972C42.9421 80.6424 42.6857 81.2365 42.4985 81.8794C42.3114 82.5223 42.1771 83.1408 42.0957 83.7349L41.998 84.4917C41.9411 84.9718 41.9004 85.5171 41.876 86.1274C41.8597 86.7297 41.9085 87.3156 42.0225 87.8853C42.1445 88.4549 42.3805 88.931 42.7305 89.3135C43.0804 89.6878 43.5931 89.8872 44.2686 89.9116C44.9928 89.9442 45.6113 89.7936 46.124 89.46C46.6367 89.1182 47.0599 88.6706 47.3936 88.1172C47.7354 87.5638 47.9998 86.9657 48.187 86.3228C48.3823 85.6799 48.5166 85.0654 48.5898 84.4795ZM67.9014 75.2266L67.3154 78.5347H58.3921L58.9658 75.2266H67.9014ZM70.709 75.2266L67.6206 93H63.4458L66.522 75.2266H70.709ZM58.6729 75.2266H62.8721L60.8335 84.2476C60.6545 85.1021 60.4469 85.9565 60.2109 86.811C59.9831 87.6574 59.6942 88.459 59.3442 89.2158C58.9943 89.9645 58.5589 90.6278 58.0381 91.2056C57.5173 91.7834 56.8825 92.235 56.1338 92.5605C55.3851 92.8779 54.494 93.0244 53.4604 93H52.2153L52.7036 89.7041L53.0942 89.6675C53.7209 89.6105 54.2498 89.4152 54.6812 89.0815C55.1125 88.7479 55.4665 88.3288 55.7432 87.8242C56.028 87.3115 56.2559 86.7581 56.4268 86.1641C56.5977 85.57 56.736 84.98 56.8418 84.394C56.9476 83.8081 57.0452 83.2751 57.1348 82.7949L58.6729 75.2266ZM77.5083 86.0542L72.5522 75.2388L77.6426 75.2266L79.9619 82.1968H82.9648L81.793 86.0542H77.5083ZM79.4492 85.4438L74.542 93H69.1343L76.1167 83.1855L79.4492 85.4438ZM87.1152 75.2266L84.0269 93H79.8643L82.9404 75.2266H87.1152ZM97.5156 75.2266L89.0195 86.0542H84.5151L84.6738 82.1968H87.457L92.0469 75.2266H97.5156ZM89.3735 93L87.1641 85.1753L90.936 83.1001L94.4272 93H89.3735ZM109.222 82.2822L108.648 85.5781H99.7739L100.348 82.2822H109.222ZM102.984 75.2266L99.896 93H95.7212L98.7974 75.2266H102.984ZM113.238 75.2266L110.15 93H105.987L109.063 75.2266H113.238ZM122.711 79.1694L116.168 93H111.542L120.965 75.2266H123.919L122.711 79.1694ZM123.834 93L122.027 78.7422L122.125 75.2266H124.908L128.192 93H123.834ZM124.786 86.3716L124.2 89.6797H115.326L115.912 86.3716H124.786ZM150.433 75.2266L149.859 78.5347H142.364L139.85 93H135.687L138.763 75.2266H150.433ZM140.313 81.3423L143.805 81.3545C144.928 81.3789 145.969 81.6027 146.93 82.0259C147.898 82.4491 148.663 83.0757 149.225 83.9058C149.786 84.7358 150.022 85.7694 149.933 87.0063C149.851 88.0073 149.583 88.8862 149.127 89.6431C148.671 90.3918 148.081 91.0184 147.357 91.5229C146.633 92.0194 145.827 92.3937 144.94 92.646C144.061 92.8901 143.158 93.0081 142.23 93H135.699L138.775 75.2266H142.975L140.46 89.7041L142.376 89.7163C142.938 89.7163 143.459 89.6064 143.939 89.3867C144.419 89.167 144.822 88.8577 145.147 88.459C145.473 88.0521 145.676 87.5597 145.758 86.9819C145.831 86.4937 145.786 86.0827 145.624 85.749C145.469 85.4072 145.221 85.1427 144.879 84.9556C144.537 84.7684 144.134 84.6667 143.67 84.6504L139.74 84.6382L140.313 81.3423ZM155.572 81.3423L159.063 81.3545C160.187 81.3789 161.228 81.6027 162.188 82.0259C163.157 82.4491 163.922 83.0757 164.483 83.9058C165.045 84.7358 165.281 85.7694 165.191 87.0063C165.11 88.0073 164.841 88.8862 164.386 89.6431C163.93 90.3918 163.34 91.0184 162.616 91.5229C161.891 92.0194 161.086 92.3937 160.199 92.646C159.32 92.8901 158.417 93.0081 157.489 93H150.958L154.034 75.2266H158.233L155.719 89.7041L157.635 89.7163C158.197 89.7163 158.718 89.6064 159.198 89.3867C159.678 89.167 160.081 88.8577 160.406 88.459C160.732 88.0521 160.939 87.5597 161.029 86.9819C161.102 86.4937 161.057 86.0827 160.895 85.749C160.732 85.4072 160.479 85.1427 160.138 84.9556C159.796 84.7684 159.393 84.6667 158.929 84.6504L154.999 84.6382L155.572 81.3423ZM172.65 75.2266L169.574 93H165.399L168.487 75.2266H172.65ZM183.319 75.2266L180.243 93H176.056L179.144 75.2266H183.319ZM188.507 75.2266L187.933 78.5347H173.492L174.078 75.2266H188.507ZM191.998 81.3423L195.489 81.3545C196.612 81.3789 197.654 81.6027 198.614 82.0259C199.583 82.4491 200.348 83.0757 200.909 83.9058C201.471 84.7358 201.707 85.7694 201.617 87.0063C201.536 88.0073 201.267 88.8862 200.812 89.6431C200.356 90.3918 199.766 91.0184 199.042 91.5229C198.317 92.0194 197.512 92.3937 196.625 92.646C195.746 92.8901 194.842 93.0081 193.915 93H187.384L190.46 75.2266H194.659L192.145 89.7041L194.061 89.7163C194.623 89.7163 195.143 89.6064 195.624 89.3867C196.104 89.167 196.507 88.8577 196.832 88.459C197.158 88.0521 197.361 87.5597 197.442 86.9819C197.516 86.4937 197.471 86.0827 197.308 85.749C197.153 85.4072 196.905 85.1427 196.563 84.9556C196.222 84.7684 195.819 84.6667 195.355 84.6504L191.424 84.6382L191.998 81.3423ZM25.4819 104.227L27.3618 110.11L31.0972 104.227H36.041L29.73 113.223L33.1968 122H28.5825L26.6294 116.006L22.7964 122H17.7915L24.2734 112.857L20.8921 104.227H25.4819ZM50.4087 112.686L50.3232 113.406C50.1605 114.57 49.8472 115.689 49.3833 116.763C48.9276 117.829 48.3254 118.777 47.5767 119.607C46.8361 120.438 45.9572 121.093 44.9399 121.573C43.9227 122.045 42.7793 122.269 41.5098 122.244C40.2891 122.22 39.2474 121.959 38.3848 121.463C37.5303 120.966 36.8467 120.303 36.334 119.473C35.8294 118.643 35.4876 117.711 35.3086 116.678C35.1296 115.644 35.1051 114.578 35.2354 113.479L35.3208 112.759C35.4836 111.604 35.7969 110.497 36.2607 109.439C36.7246 108.373 37.3309 107.425 38.0796 106.595C38.8283 105.765 39.7113 105.118 40.7285 104.654C41.7458 104.182 42.8851 103.958 44.1465 103.982C45.359 103.999 46.3926 104.255 47.2471 104.751C48.1016 105.248 48.7811 105.911 49.2856 106.741C49.7983 107.563 50.1442 108.491 50.3232 109.524C50.5104 110.55 50.5389 111.604 50.4087 112.686ZM46.0752 113.479L46.1729 112.723C46.2298 112.243 46.2664 111.701 46.2827 111.099C46.299 110.497 46.2461 109.915 46.124 109.354C46.002 108.784 45.766 108.312 45.416 107.938C45.0742 107.563 44.5697 107.36 43.9023 107.327C43.1618 107.295 42.5352 107.445 42.0225 107.779C41.5098 108.104 41.0866 108.544 40.7529 109.097C40.4274 109.642 40.1711 110.236 39.9839 110.879C39.7967 111.522 39.6624 112.141 39.5811 112.735L39.4834 113.492C39.4264 113.972 39.3857 114.517 39.3613 115.127C39.3451 115.73 39.3939 116.316 39.5078 116.885C39.6299 117.455 39.8659 117.931 40.2158 118.313C40.5658 118.688 41.0785 118.887 41.7539 118.912C42.4782 118.944 43.0967 118.794 43.6094 118.46C44.1221 118.118 44.5452 117.671 44.8789 117.117C45.2207 116.564 45.4852 115.966 45.6724 115.323C45.8677 114.68 46.002 114.065 46.0752 113.479ZM61.3706 104.227L58.2944 122H54.1074L57.1958 104.227H61.3706ZM66.5586 104.227L65.9849 107.535H51.5439L52.1299 104.227H66.5586ZM75.2988 115.762H70.8921L69.7568 115.225C68.5524 114.721 67.6328 114.041 66.998 113.187C66.3633 112.324 66.0947 111.209 66.1924 109.842C66.29 108.523 66.6847 107.453 67.3765 106.631C68.0682 105.801 68.943 105.191 70.001 104.8C71.0671 104.41 72.2104 104.214 73.4312 104.214L79.9131 104.227L76.8369 122H72.6377L75.1523 107.535L73.2847 107.51C72.4139 107.518 71.7262 107.763 71.2217 108.243C70.7171 108.723 70.4079 109.386 70.2939 110.232C70.2288 110.704 70.2288 111.124 70.2939 111.49C70.3672 111.856 70.534 112.145 70.7944 112.356C71.063 112.56 71.4536 112.674 71.9663 112.698L75.8115 112.71L75.2988 115.762ZM72.4912 114.163L67.4619 122H62.7256L67.7061 114.163H72.4912ZM100.042 104.227L99.4688 107.535H91.9736L89.459 122H85.2964L88.3726 104.227H100.042ZM89.9229 110.342L93.4141 110.354C94.5371 110.379 95.5788 110.603 96.5391 111.026C97.5075 111.449 98.2725 112.076 98.834 112.906C99.3955 113.736 99.6315 114.769 99.542 116.006C99.4606 117.007 99.1921 117.886 98.7363 118.643C98.2806 119.392 97.6906 120.018 96.9663 120.523C96.242 121.019 95.4364 121.394 94.5493 121.646C93.6704 121.89 92.7671 122.008 91.8394 122H85.3086L88.3848 104.227H92.584L90.0693 118.704L91.9858 118.716C92.5474 118.716 93.0682 118.606 93.5483 118.387C94.0285 118.167 94.4313 117.858 94.7568 117.459C95.0824 117.052 95.2858 116.56 95.3672 115.982C95.4404 115.494 95.3957 115.083 95.2329 114.749C95.0783 114.407 94.8301 114.143 94.4883 113.956C94.1465 113.768 93.7437 113.667 93.2798 113.65L89.3491 113.638L89.9229 110.342ZM105.182 110.342L108.673 110.354C109.796 110.379 110.838 110.603 111.798 111.026C112.766 111.449 113.531 112.076 114.093 112.906C114.654 113.736 114.89 114.769 114.801 116.006C114.719 117.007 114.451 117.886 113.995 118.643C113.539 119.392 112.949 120.018 112.225 120.523C111.501 121.019 110.695 121.394 109.808 121.646C108.929 121.89 108.026 122.008 107.098 122H100.567L103.644 104.227H107.843L105.328 118.704L107.245 118.716C107.806 118.716 108.327 118.606 108.807 118.387C109.287 118.167 109.69 117.858 110.016 117.459C110.341 117.052 110.549 116.56 110.638 115.982C110.711 115.494 110.667 115.083 110.504 114.749C110.341 114.407 110.089 114.143 109.747 113.956C109.405 113.768 109.002 113.667 108.539 113.65L104.608 113.638L105.182 110.342ZM122.259 104.227L119.183 122H115.008L118.097 104.227H122.259ZM144.208 112.686L144.122 113.406C143.959 114.57 143.646 115.689 143.182 116.763C142.726 117.829 142.124 118.777 141.375 119.607C140.635 120.438 139.756 121.093 138.739 121.573C137.722 122.045 136.578 122.269 135.309 122.244C134.088 122.22 133.046 121.959 132.184 121.463C131.329 120.966 130.646 120.303 130.133 119.473C129.628 118.643 129.286 117.711 129.107 116.678C128.928 115.644 128.904 114.578 129.034 113.479L129.12 112.759C129.282 111.604 129.596 110.497 130.06 109.439C130.523 108.373 131.13 107.425 131.878 106.595C132.627 105.765 133.51 105.118 134.527 104.654C135.545 104.182 136.684 103.958 137.945 103.982C139.158 103.999 140.191 104.255 141.046 104.751C141.9 105.248 142.58 105.911 143.084 106.741C143.597 107.563 143.943 108.491 144.122 109.524C144.309 110.55 144.338 111.604 144.208 112.686ZM139.874 113.479L139.972 112.723C140.029 112.243 140.065 111.701 140.082 111.099C140.098 110.497 140.045 109.915 139.923 109.354C139.801 108.784 139.565 108.312 139.215 107.938C138.873 107.563 138.368 107.36 137.701 107.327C136.961 107.295 136.334 107.445 135.821 107.779C135.309 108.104 134.885 108.544 134.552 109.097C134.226 109.642 133.97 110.236 133.783 110.879C133.596 111.522 133.461 112.141 133.38 112.735L133.282 113.492C133.225 113.972 133.185 114.517 133.16 115.127C133.144 115.73 133.193 116.316 133.307 116.885C133.429 117.455 133.665 117.931 134.015 118.313C134.365 118.688 134.877 118.887 135.553 118.912C136.277 118.944 136.896 118.794 137.408 118.46C137.921 118.118 138.344 117.671 138.678 117.117C139.02 116.564 139.284 115.966 139.471 115.323C139.667 114.68 139.801 114.065 139.874 113.479ZM158.685 118.704L158.111 122H145.978L146.551 118.704H158.685ZM147.943 118.704L146.612 126.358H142.755L143.792 118.704H147.943ZM161.529 118.704L159.759 126.37H155.987L157.33 118.704H161.529ZM159.381 104.227L158.807 107.535H150.128L150.702 104.227H159.381ZM162.176 104.227L159.1 122H154.938L158.026 104.227H162.176ZM150.421 104.227H154.632L152.838 111.502C152.643 112.332 152.427 113.093 152.191 113.785C151.963 114.476 151.707 115.119 151.422 115.713C151.137 116.299 150.82 116.857 150.47 117.386C150.128 117.907 149.75 118.415 149.334 118.912C148.919 119.408 148.46 119.909 147.955 120.413C147.459 120.918 146.917 121.447 146.332 122H143.597L144.085 118.704L144.854 118.729C145.489 118.354 146.014 117.894 146.429 117.349C146.852 116.804 147.202 116.21 147.479 115.567C147.756 114.916 147.984 114.244 148.163 113.553C148.342 112.861 148.504 112.181 148.651 111.514L150.421 104.227ZM175.848 111.282L175.274 114.578H166.4L166.974 111.282H175.848ZM169.61 104.227L166.522 122H162.347L165.423 104.227H169.61ZM179.864 104.227L176.776 122H172.613L175.689 104.227H179.864ZM189.337 108.169L182.794 122H178.167L187.591 104.227H190.545L189.337 108.169ZM190.46 122L188.653 107.742L188.751 104.227H191.534L194.818 122H190.46ZM191.412 115.372L190.826 118.68H181.952L182.538 115.372H191.412ZM26.2632 133.227L23.1748 151H19.0122L22.0884 133.227H26.2632ZM36.3218 133.227L28.2651 143.969H23.6753L23.8584 140.099H26.5562L31.0605 133.227H36.3218ZM28.8999 151L26.1411 143.053L29.5225 140.319L33.6606 151H28.8999ZM44.4639 137.169L37.9209 151H33.2944L42.7183 133.227H45.6724L44.4639 137.169ZM45.5869 151L43.7803 136.742L43.8779 133.227H46.6611L49.9448 151H45.5869ZM46.5391 144.372L45.9531 147.68H37.0786L37.6646 144.372H46.5391ZM59.4175 144.982L54.9009 144.97L55.4746 141.662L59.564 141.674C60.0929 141.674 60.5771 141.58 61.0166 141.393C61.4561 141.198 61.8182 140.917 62.103 140.551C62.3879 140.185 62.571 139.729 62.6523 139.184C62.7256 138.736 62.7134 138.317 62.6157 137.926C62.5181 137.536 62.3268 137.214 62.042 136.962C61.7572 136.71 61.3665 136.571 60.8701 136.547L57.9526 136.535L55.438 151H51.2632L54.3394 133.227L61.0044 133.239C62.1681 133.263 63.2098 133.515 64.1294 133.996C65.049 134.476 65.7611 135.151 66.2656 136.022C66.7702 136.893 66.9736 137.938 66.876 139.159C66.7702 140.478 66.3511 141.568 65.6187 142.431C64.8944 143.293 63.9829 143.936 62.8843 144.359C61.7938 144.774 60.6382 144.982 59.4175 144.982ZM78.5093 133.227L75.4331 151H71.2461L74.3345 133.227H78.5093ZM83.6973 133.227L83.1235 136.535H68.6826L69.2686 133.227H83.6973ZM87.4814 144.201L95.4526 133.227H99.7373L96.6611 151H92.4741L94.3906 140.038L86.4194 151H82.1226L85.2109 133.227H89.3979L87.4814 144.201ZM112.665 140.282L112.091 143.578H103.216L103.79 140.282H112.665ZM106.427 133.227L103.338 151H99.1636L102.24 133.227H106.427ZM116.681 133.227L113.592 151H109.43L112.506 133.227H116.681ZM123.431 133.227L120.343 151H116.18L119.256 133.227H123.431ZM133.49 133.227L125.433 143.969H120.843L121.026 140.099H123.724L128.229 133.227H133.49ZM126.068 151L123.309 143.053L126.69 140.319L130.829 151H126.068ZM141.632 137.169L135.089 151H130.462L139.886 133.227H142.84L141.632 137.169ZM142.755 151L140.948 136.742L141.046 133.227H143.829L147.113 151H142.755ZM143.707 144.372L143.121 147.68H134.247L134.833 144.372H143.707Z" fill="#333333"/>
</svg>
