<svg width="14" height="14" viewBox="0 0 14 14" fill="none" xmlns="http://www.w3.org/2000/svg">
<path fill-rule="evenodd" clip-rule="evenodd" d="M9.74888 0C8.23071 0 7.04813 1.27619 6.46716 2.67878V2.67878C6.11537 3.52806 5.59976 4.29974 4.94975 4.94975C4.29974 5.59976 3.52806 6.11537 2.67878 6.46716C1.82951 6.81894 0.919255 7 2.8619e-06 7C1.2818e-06 7 0 7 0 7V7C0 7 1.2818e-06 7.00001 2.8619e-06 7.00001C0.919257 7.00001 1.82951 7.18107 2.67879 7.53285C3.52807 7.88463 4.29974 8.40025 4.94975 9.05026C5.59976 9.70027 6.11538 10.4719 6.46716 11.3212V11.3212C7.04813 12.7238 8.23072 14 9.74888 14L11 14C12.6569 14 14 12.6569 14 11V3C14 1.34315 12.6569 0 11 0H9.74888Z" fill="#111111" />
</svg>
